<!--?xml version="1.0" standalone="no"?-->
              <svg id="sw-js-blob-svg" viewBox="0 0 100 100" xmlns="http://www.w3.org/2000/svg" version="1.1">
                    <defs> 
                        <linearGradient id="sw-gradient" x1="0" x2="1" y1="1" y2="0">
                            <stop id="stop1" stop-color="rgba(178.799, 177.043, 176.212, 1)" offset="0%"></stop>
                            <stop id="stop2" stop-color="rgba(203.843, 203.843, 203.843, 1)" offset="100%"></stop>
                        </linearGradient>
                    </defs>
                <path fill="url(#sw-gradient)" d="M19.8,-29.2C26.3,-26.6,32.6,-22.2,35.1,-16.2C37.5,-10.2,36,-2.6,34,4.2C32,11.1,29.5,17.2,25.3,21.9C21.2,26.6,15.5,29.9,8.7,33.7C2,37.5,-5.8,41.8,-12.5,40.7C-19.3,39.6,-25,33.1,-29.7,26.5C-34.3,19.8,-37.9,12.9,-39.1,5.6C-40.2,-1.8,-39,-9.5,-34.8,-14.8C-30.7,-20.1,-23.6,-22.9,-17.3,-25.6C-11.1,-28.3,-5.5,-30.8,0.6,-31.7C6.6,-32.6,13.3,-31.8,19.8,-29.2Z" width="100%" height="100%" transform="translate(50 50)" stroke-width="0" style="transition: all 0.3s ease 0s;" stroke="url(#sw-gradient)"></path>
              </svg>