
<svg width="526" height="230" xmlns="http://www.w3.org/2000/svg" xmlns:xlink="http://www.w3.org/1999/xlink" overflow="hidden"><defs><clipPath id="clip0"><path d="M0 0 526 0 526 230 0 230Z" fill-rule="evenodd" clip-rule="evenodd"/></clipPath></defs><g clip-path="url(#clip0)"><rect x="0" y="0" width="525.239" height="230" fill="#FFFFFF" transform="scale(1.00145 1)"/><rect x="0" y="0" width="525.239" height="230" fill="#F2F2F2" transform="scale(1.00145 1)"/><path d="M0 155.638 0 136.275 7.89167 136.275 15.7278 136.275 15.7278 109.052 15.7278 81.7757 40.292 81.7757 64.8562 81.7757 64.8562 109.052 64.8562 136.275 74.5818 136.275 84.3075 136.275 84.3075 129.311 84.3075 122.294 92.8661 122.03 101.425 121.767 101.647 96.4953 101.925 71.224 106.093 71.224 110.205 71.224 110.205 96.7064 110.205 122.242 117.653 122.242 125.044 122.242 125.044 117.81 125.044 113.431 137.548 113.431 150.053 113.431 150.053 98.9222 150.053 84.4136 157.945 84.4136 165.781 84.4136 165.781 61.5692 165.781 38.672 169.949 38.672 174.117 38.672 174.117 61.5692 174.117 84.4136 187.121 84.4136 200.07 84.4136 200.07 98.9222 200.07 113.431 225.079 113.431 250.088 113.431 250.088 124.879 250.088 136.275 260.258 136.275 270.484 136.275 270.484 101.56 270.484 66.8451 322.336 66.8451 374.187 66.8451 374.187 98.5002 374.187 130.155 377.911 130.155 381.634 130.155 381.634 84.0443 381.634 37.9334 384.635 37.6696 387.637 37.353 387.914 25.2713 388.137 13.1896 393.194 13.1896 398.307 13.1896 398.307 6.59482 398.307 0 411.256 0 424.205 0 424.205 6.59482 424.205 13.1896 429.763 13.1896 435.32 13.1896 435.32 25.4824 435.32 37.8279 438.099 37.8279 440.878 37.8279 440.878 81.7757 440.878 125.724 446.935 125.724 452.937 125.724 452.937 117.388 452.937 109.052 464.497 109.052 476.112 109.052 476.112 117.388 476.112 125.724 480.725 125.724 485.338 125.724 485.338 111.69 485.338 97.6033 493.229 97.6033 501.121 97.6033 501.121 111.69 501.121 125.724 506.178 125.724 511.291 125.724 511.291 145.086 511.291 164.448 517.794 164.448 524.24 164.448 524.24 169.724 524.24 175 262.148 175 0 175 0 155.638ZM401.086 95.3874 401.086 59.7754 395.973 59.7754 390.86 59.7754 390.86 95.3874 390.86 130.999 395.973 130.999 401.086 130.999 401.086 95.3874ZM415.869 95.3874 415.869 59.7754 411.256 59.7754 406.643 59.7754 406.643 95.3874 406.643 130.999 411.256 130.999 415.869 130.999 415.869 95.3874ZM431.652 95.3874 431.652 59.7754 426.984 59.7754 422.371 59.7754 422.371 95.3874 422.371 130.999 426.984 130.999 431.652 130.999 431.652 95.3874ZM301.94 116.491 301.94 109.896 294.993 109.896 288.046 109.896 288.046 116.491 288.046 123.086 294.993 123.086 301.94 123.086 301.94 116.491ZM329.727 116.491 329.727 109.896 322.78 109.896 315.833 109.896 315.833 116.491 315.833 123.086 322.78 123.086 329.727 123.086 329.727 116.491ZM357.515 116.491 357.515 109.896 350.568 109.896 343.621 109.896 343.621 116.491 343.621 123.086 350.568 123.086 357.515 123.086 357.515 116.491ZM301.94 91.0085 301.94 84.4136 294.993 84.4136 288.046 84.4136 288.046 91.0085 288.046 97.6033 294.993 97.6033 301.94 97.6033 301.94 91.0085ZM329.727 91.0085 329.727 84.4136 322.78 84.4136 315.833 84.4136 315.833 91.0085 315.833 97.6033 322.78 97.6033 329.727 97.6033 329.727 91.0085ZM357.515 91.0085 357.515 84.4136 350.568 84.4136 343.621 84.4136 343.621 91.0085 343.621 97.6033 350.568 97.6033 357.515 97.6033 357.515 91.0085ZM279.71 51.4396 279.71 44.8447 307.053 44.8447 334.396 44.8447 334.396 51.4396 334.396 58.0344 307.053 58.0344 279.71 58.0344 279.71 51.4396ZM342.732 41.7848 342.732 25.4824 354.291 25.4824 365.851 25.4824 365.851 41.7848 365.851 58.0344 354.291 58.0344 342.732 58.0344 342.732 41.7848Z" fill="#E5E5E5" fill-rule="evenodd" transform="matrix(1.00145 0 -0 1 0 14)"/><path d="M0 0 502.272 0.000104835" stroke="#7C7C7B" stroke-width="1.3314" stroke-miterlimit="8" fill="none" fill-rule="evenodd" transform="matrix(1.00145 0 -0 1 0.500053 188.5)"/><path d="M39.3292 0C39.3292 0 39.1382 0 39.1382 0.189128 38.9473 0.378256 38.7564 0.567384 38.3746 0.567384 38.3746 0.567384 38.3746 0.567384 38.3746 0.567384 37.9927 0.567384 37.9927 0.378256 37.8018 0.378256 37.6109 0.378256 37.6109 0.378256 37.42 0.567384 37.0381 0.756512 36.4654 0.756512 36.2745 1.13477 36.2745 1.13477 36.0836 1.3239 35.8926 1.3239 35.7017 1.3239 35.3199 0.94564 35.129 0.94564 35.129 0.94564 35.129 0.94564 35.129 0.94564 34.5562 0.94564 35.129 1.70215 34.3653 1.89128 34.3653 1.89128 34.3653 2.08041 34.1744 2.08041 33.9835 2.08041 33.7925 1.89128 33.4107 1.70215 33.4107 1.70215 33.2198 1.70215 33.2198 1.70215 33.0289 1.70215 32.8379 1.70215 32.647 1.70215 32.4561 1.89128 32.2652 1.89128 31.8834 1.89128 31.8834 1.89128 31.8834 1.89128 31.6924 1.89128 31.6924 1.89128 31.5015 1.89128 31.5015 1.89128 31.3106 1.89128 31.1197 2.08041 31.1197 2.45866 31.1197 2.83692 30.9288 3.02605 30.7378 3.02605 30.7378 3.02605 30.5469 3.02605 30.5469 3.02605 30.5469 3.02605 30.5469 3.02605 30.5469 3.02605 30.356 3.02605 29.9742 3.4043 30.1651 3.78256 30.356 4.34994 29.5923 3.97169 29.2105 4.34994 28.8287 4.7282 28.8287 4.7282 28.2559 4.91733 27.8741 4.91733 28.2559 6.05209 28.2559 6.24122 28.6377 6.61948 28.065 7.56512 29.0196 7.56512 29.2105 7.56512 29.2105 7.56512 29.2105 7.56512 29.5923 7.56512 29.9742 7.56512 30.1651 7.56512 30.5469 7.56512 30.7378 7.56512 30.9288 7.56512 31.1197 7.75425 31.3106 7.75425 31.3106 7.94337 31.5015 8.32163 31.8834 8.51076 32.2652 8.88901 32.2652 9.07814 32.4561 9.4564 32.647 9.64552 32.8379 9.64552 32.8379 9.83465 33.0289 9.83465 33.2198 9.83465 33.4107 9.4564 33.6016 9.26727 33.6016 9.26727 33.6016 9.26727 33.6016 9.26727 33.7925 9.26727 33.9835 10.7803 34.1744 10.7803 34.3653 10.9694 34.5562 11.3477 34.7471 11.5368 35.129 11.7259 35.5108 11.5368 35.7017 11.7259 36.0836 11.9151 35.8926 12.2933 35.7017 12.4824 35.3199 12.6716 35.3199 12.6716 35.129 13.0498 34.7471 13.6172 33.7925 13.239 33.6016 13.8063 33.4107 14.1846 32.0743 14.9411 32.0743 14.9411 32.0743 15.1302 32.2652 15.3194 32.2652 15.6976 32.2652 16.0759 32.0743 16.4541 32.2652 16.6433 32.647 17.0215 32.8379 16.8324 32.647 17.3998 32.4561 17.9672 32.0743 17.778 32.2652 18.3454 32.2652 18.9128 32.8379 18.9128 32.8379 19.291 32.8379 19.8584 32.8379 20.4258 33.2198 20.8041 33.2198 20.8041 33.2198 20.8041 33.0289 20.8041 32.8379 20.8041 32.8379 21.9388 32.8379 22.128 32.8379 22.6954 32.2652 23.4519 32.8379 24.0192 33.7925 24.9649 34.938 24.5866 35.7017 25.154 36.0836 25.5323 36.2745 26.0997 36.6563 26.0997 36.8472 26.0997 36.8472 26.0997 36.8472 26.0997 36.8472 26.0997 37.2291 26.0997 37.6109 26.0997 37.8018 26.0997 37.9927 26.0997 37.9927 26.0997 38.1837 26.2888 37.8018 26.8562 37.9927 27.2344 37.9927 27.4235 38.3746 27.8018 38.7564 27.8018 39.1382 27.9909 39.5201 27.9909 39.9019 27.9909 39.9019 27.9909 39.9019 27.9909 39.9019 27.9909 39.9019 27.9909 39.9019 27.9909 39.9019 27.9909 40.0928 27.9909 40.2838 27.9909 40.2838 28.1801 40.2838 28.1801 40.4747 28.3692 40.6656 28.3692 40.6656 28.3692 40.6656 28.3692 40.6656 28.3692 40.6656 28.3692 40.6656 28.3692 40.6656 28.3692 41.6202 28.3692 41.6202 29.6931 40.6656 29.8822 40.6656 29.8822 40.6656 29.8822 40.6656 29.8822 40.4747 29.8822 40.2838 29.6931 40.2838 29.6931 40.0928 29.6931 39.9019 29.6931 39.711 29.6931 39.711 29.6931 39.711 29.6931 39.5201 29.6931 39.1382 30.0713 38.9473 30.4496 38.3746 30.6387 37.6109 30.8279 37.6109 31.017 37.2291 31.5844 36.8472 31.9626 36.8472 31.9626 37.2291 32.53 37.42 32.9083 37.6109 33.6648 37.6109 34.043 37.6109 34.6104 36.8472 34.6104 37.0381 35.3669 37.2291 35.9343 37.2291 35.7452 36.6563 35.9343 36.2745 36.1234 36.0836 36.8799 35.8926 37.2582 35.3199 38.2038 34.1744 38.5821 33.9835 39.5277 33.7925 39.906 34.1744 40.6625 33.7925 40.8516 33.4107 41.2299 33.0289 41.419 32.647 41.6081 32.0743 41.7973 31.5015 41.7973 31.3106 41.9864 30.7378 42.5538 30.7378 43.4994 30.5469 44.2559 30.356 44.8233 29.9742 45.0124 29.5923 45.5798 29.2105 46.1472 29.0196 46.7146 28.6377 47.282 28.4468 47.4711 27.8741 48.2276 27.6832 48.4168 27.4922 48.4168 27.4922 48.4168 27.3013 48.4168 27.3013 48.4168 27.1104 48.4168 26.9195 48.2276 26.7286 48.2276 26.7286 48.2276 26.5376 48.2276 26.3467 48.2276 26.1558 48.2276 25.9649 48.6059 25.774 48.9841 25.583 49.3624 25.0103 49.7406 24.6285 50.1189 24.6285 50.8754 24.4375 51.2537 24.0557 51.8211 23.4829 51.8211 23.1011 52.1993 22.5284 52.5776 22.7193 52.9558 22.5284 53.5232 22.5284 53.7123 21.9556 53.9015 21.5738 53.9015 21.3828 53.9015 21.001 53.9015 20.8101 53.7123 20.6192 53.7123 20.2373 53.7123 20.0464 53.7123 20.0464 53.7123 20.0464 53.7123 19.8555 53.7123 19.2827 53.9015 18.5191 53.9015 18.1372 54.0906 17.9463 54.2797 17.3736 54.658 17.1826 54.658 16.9917 54.658 16.9917 54.658 16.9917 54.4688 16.6099 54.0906 16.6099 53.7123 16.8008 53.145 16.8008 52.7667 16.9917 52.3884 16.6099 52.3884 16.419 52.3884 16.419 52.3884 16.419 52.3884 14.8916 52.5776 13.937 52.9558 12.9824 54.2797 12.4097 54.8471 12.2188 55.4145 11.4551 55.9819 10.6914 56.3601 10.1187 56.5493 9.54591 57.3058 8.97316 58.0623 9.16408 60.7101 10.5005 60.8992 11.2642 61.0883 11.646 61.4666 12.2188 61.4666 12.4097 61.4666 12.4097 61.4666 12.4097 61.4666 12.4097 61.4666 12.4097 61.4666 12.4097 61.4666 13.1734 61.4666 12.7915 62.2231 12.4097 62.7905 12.0279 63.3579 11.8369 63.9252 12.0279 64.6818 12.2188 65.4383 12.7915 66.1948 13.1734 66.7622 13.5552 66.9513 13.7461 66.9513 13.937 66.9513 14.128 66.9513 14.3189 66.9513 14.5098 66.9513 14.7007 66.9513 14.7007 66.9513 14.8916 66.9513 15.4644 66.9513 14.8916 67.5187 15.0825 68.2752 15.4644 69.7882 17.3736 72.2469 16.419 73.7599 16.2281 74.1382 16.0371 73.949 15.8462 74.5164 15.8462 74.7055 15.8462 74.7055 15.6553 74.7055 15.6553 74.7055 15.6553 74.7055 15.6553 74.7055 15.4644 74.5164 15.4644 74.5164 15.2735 74.5164 15.2735 74.5164 15.2735 74.5164 15.2735 74.5164 15.2735 74.5164 15.2735 73.1925 14.7007 73.1925 14.7007 73.1925 14.7007 73.1925 14.7007 73.1925 13.937 73.1925 13.3643 73.7599 12.6006 73.949 12.6006 73.949 12.6006 73.949 12.6006 73.949 12.6006 73.949 12.4097 73.949 12.4097 73.7599 12.2188 73.7599 12.2188 73.7599 12.2188 73.7599 12.0279 73.7599 11.8369 73.949 11.8369 73.949 11.646 74.1382 11.646 74.5164 11.646 74.8947 11.0733 74.8947 10.6914 74.8947 10.3096 74.7055 9.73683 74.5164 9.54591 73.7599 8.97316 73.5708 8.97316 73.5708 8.78224 73.5708 8.78224 73.5708 8.4004 73.5708 8.20949 73.949 7.82765 74.1382 7.63673 74.1382 7.63673 74.1382 7.44581 74.1382 6.87306 74.1382 6.3003 73.7599 5.72755 73.5708 5.53663 73.5708 5.15479 73.3816 4.77296 73.3816 4.58204 73.3816 4.58204 73.3816 4.39112 73.3816 4.00928 73.5708 3.81837 74.3273 4.00928 74.5164 4.00928 74.8947 4.00928 75.462 3.62745 75.462 3.62745 75.462 3.43653 75.462 3.43653 75.462 3.43653 75.2729 3.24561 75.2729 3.24561 75.2729 3.05469 75.2729 3.05469 75.2729 3.05469 75.2729 3.05469 75.462 2.86377 75.462 2.86377 75.462 2.86377 75.462 2.86377 75.462 2.67286 75.2729 2.48194 75.2729 2.29102 75.0838 1.90918 74.8947 1.90918 74.8947 1.90918 74.8947 1.71826 74.8947 0.763673 74.8947 0.954591 76.4077 0.954591 76.9751 0.763673 77.3533 0 77.5425 0.572755 78.1098 0.763673 78.1098 0.954591 78.4881 1.14551 78.4881 1.14551 78.4881 1.14551 78.4881 1.14551 78.4881 1.33643 78.4881 1.33643 78.4881 1.33643 78.4881 1.33643 78.4881 1.52735 78.4881 1.52735 78.4881 1.52735 78.4881 1.52735 78.4881 1.71826 78.4881 2.1001 79.0555 2.86377 79.4337 3.05469 80.1902 3.24561 80.9468 4.2002 81.8924 4.96388 82.2707 5.91847 82.6489 6.68214 83.2163 7.82765 83.5945 8.01857 83.5945 8.20949 83.5945 8.4004 83.5945 8.59132 83.5945 8.59132 83.5945 8.78224 83.5945 8.97316 83.5945 8.97316 83.5945 9.16408 83.5945 9.16408 83.5945 9.355 83.5945 9.355 83.5945 9.355 83.5945 9.355 83.5945 9.355 83.5945 9.73683 83.5945 9.73683 83.4054 9.73683 83.2163 9.73683 83.0272 9.73683 82.838 9.92775 82.838 10.1187 82.838 10.1187 83.0272 10.3096 83.0272 10.5005 83.0272 10.6914 83.0272 10.8823 83.0272 11.2642 83.0272 11.4551 83.0272 11.8369 82.838 11.8369 82.6489 12.0279 82.4598 12.4097 82.4598 12.4097 82.4598 12.6006 82.4598 12.7915 82.6489 12.7915 82.6489 11.8369 83.5945 11.8369 83.5945 11.2642 83.9728 10.8823 83.7837 10.3096 83.9728 9.92775 84.3511 9.16408 84.3511 8.78224 84.7293 8.78224 84.7293 8.59132 84.7293 8.59132 84.7293 8.4004 84.7293 8.20949 84.7293 8.20949 84.7293 8.01857 84.7293 7.82765 84.5402 7.82765 84.5402 7.63673 84.5402 7.63673 84.7293 7.44581 84.7293 7.44581 84.7293 7.06398 85.1076 6.68214 85.1076 6.68214 85.1076 6.49122 85.1076 6.49122 84.9184 6.3003 84.5402 6.3003 84.1619 5.72755 84.1619 5.72755 84.1619 5.72755 84.1619 5.53663 84.1619 4.77296 84.1619 4.2002 84.9184 4.2002 85.675 4.39112 86.8097 5.53663 87.7554 6.3003 88.5119 7.06398 89.4575 7.82765 90.214 8.59132 90.9705 9.355 91.9162 9.92775 93.0509 10.8823 93.9966 11.2642 94.3748 11.8369 94.564 12.0279 95.1313 12.4097 95.6987 12.9824 95.6987 13.5552 95.8879 13.937 96.077 14.3189 96.4553 14.7007 96.4553 14.8916 96.4553 14.8916 96.4553 15.0825 96.2661 15.2735 96.2661 15.4644 95.8879 15.6553 95.8879 15.6553 95.8879 15.6553 95.8879 15.6553 95.8879 16.0371 95.8879 16.0371 95.8879 16.2281 95.8879 16.419 95.8879 16.6099 95.8879 16.8008 95.8879 17.1826 95.6987 17.9463 95.6987 18.3282 95.5096 18.9009 94.9422 19.0918 94.9422 19.8555 94.7531 20.4283 94.7531 20.6192 94.564 20.8101 94.1857 21.1919 93.8075 21.9556 93.9966 22.3374 93.4292 22.5284 93.2401 22.5284 92.8618 22.7193 92.6727 22.9102 92.2944 23.292 92.1053 23.4829 91.7271 23.8648 91.3488 23.4829 90.7814 23.1011 90.4032 23.1011 90.214 23.292 90.0249 23.4829 90.0249 23.6739 89.8358 23.4829 89.4575 23.4829 89.2684 23.1011 88.5119 23.292 87.9445 23.8648 87.5662 23.6739 87.5662 23.8648 88.5119 23.8648 88.5119 23.8648 89.0793 23.8648 89.0793 24.0557 89.0793 24.0557 89.0793 24.2466 89.0793 24.2466 89.0793 24.2466 89.0793 24.4375 89.0793 24.4375 89.0793 24.4375 89.0793 24.6285 89.0793 24.6285 89.0793 24.8194 89.0793 23.8648 89.8358 23.8648 90.0249 23.8648 90.7814 24.4375 90.7814 25.0103 90.7814 25.0103 90.7814 25.0103 90.7814 25.0103 90.7814 24.8194 90.7814 24.6285 91.3488 24.6285 91.5379 24.6285 91.9162 24.6285 91.7271 24.4375 91.9162 24.0557 92.2944 24.0557 92.6727 24.0557 93.0509 24.0557 93.6183 24.4375 93.6183 24.6285 93.9966 24.8194 94.3748 24.4375 94.3748 24.8194 94.7531 25.2012 95.3205 25.0103 95.6987 25.2012 96.077 25.3921 96.4553 25.583 96.6444 25.583 97.0226 25.3921 97.59 24.6285 97.7791 24.6285 98.3465 24.4375 99.103 24.6285 99.8596 24.0557 100.427 23.4829 101.373 24.8194 101.751 24.4375 102.507 24.2466 103.075 24.4375 103.264 24.6285 103.642 24.8194 104.02 24.4375 104.588 24.6285 104.966 24.6285 105.533 24.8194 105.912 24.8194 106.479 24.8194 107.046 24.4375 107.046 25.0103 107.803 25.2012 107.992 24.8194 108.37 24.8194 108.559 24.6285 108.938 25.2012 109.316 25.3921 109.505 25.774 109.694 25.3921 110.072 25.583 110.451 25.774 110.829 26.1558 110.829 26.1558 111.207 26.1558 111.964 26.7286 112.531 26.7286 113.288 26.7286 113.477 26.5376 114.233 26.5376 114.233 27.1104 114.612 26.9195 114.612 26.9195 115.368 27.1104 115.368 27.1104 115.368 27.3013 115.557 27.3013 115.746 27.1104 116.125 27.1104 116.314 27.1104 116.881 27.3013 117.448 27.3013 118.016 27.4922 119.151 27.4922 120.096 28.065 121.231 28.2559 121.609 28.2559 122.177 28.4468 122.555 28.6377 122.744 28.8287 123.69 29.0196 123.69 29.4014 123.879 29.4014 124.446 29.4014 124.635 29.5923 124.824 29.5923 125.203 29.7833 125.203 29.7833 125.392 30.1651 125.203 30.356 125.392 30.356 125.392 30.356 125.392 30.356 125.392 29.9742 125.392 29.4014 125.77 30.1651 126.337 30.7378 126.716 30.5469 127.472 31.1197 128.04 31.3106 128.229 31.5015 128.04 31.5015 128.418 31.6924 128.607 31.5015 129.174 31.6924 129.174 31.8834 129.174 32.4561 129.174 32.4561 129.553 32.4561 129.931 32.2652 129.931 32.4561 130.309 32.8379 130.877 33.2198 131.255 33.4107 132.011 33.4107 132.2 33.2198 132.39 33.2198 132.39 33.2198 132.768 33.4107 132.957 33.6016 133.146 33.7925 133.524 33.9835 133.903 34.1744 134.47 34.3653 134.848 34.5562 135.037 34.5562 135.605 34.5562 135.983 34.5562 136.55 34.5562 137.118 34.5562 137.685 34.5562 138.253 34.7471 138.82 34.7471 139.009 35.129 139.198 35.3199 139.387 35.3199 139.766 35.129 140.144 35.5108 140.522 35.7017 140.522 35.8926 141.089 35.8926 141.279 36.0836 141.846 36.2745 142.602 36.6563 143.359 36.8472 143.737 36.8472 143.926 37.2291 144.115 37.42 144.494 37.9927 144.305 38.1837 144.683 38.5655 145.25 38.9473 145.629 39.5201 146.196 39.711 146.385 39.711 146.952 39.711 147.142 40.0928 147.709 40.0928 147.898 40.4747 148.276 40.6656 148.655 40.4747 149.033 40.8565 149.411 41.0474 149.789 41.0474 150.168 41.2383 150.546 41.2383 150.924 41.4293 150.924 41.6202 151.302 41.6202 151.681 41.4293 152.059 41.6202 152.437 41.8111 152.626 42.002 153.194 42.1929 153.383 42.5748 153.572 42.3839 154.139 42.5748 154.139 42.5748 154.139 42.5748 154.139 42.5748 154.139 42.5748 154.139 42.7657 153.95 42.7657 153.95 42.7657 153.95 42.7657 153.95 42.7657 153.95 42.9566 153.95 42.9566 154.328 43.1475 154.518 43.1475 154.518 43.1475 154.518 43.1475 154.518 43.1475 154.518 43.3384 154.707 43.5294 154.896 43.7203 155.274 43.9112 155.463 43.7203 155.463 43.7203 155.463 43.7203 155.463 43.7203 155.463 43.3384 155.463 43.1475 154.707 42.7657 154.707 42.7657 154.707 42.7657 154.707 42.7657 154.707 42.3839 154.707 42.7657 155.652 42.9566 155.841 43.3384 156.787 43.3384 157.733 43.5294 158.678 43.7203 159.246 44.1021 159.435 44.1021 159.813 44.293 160.38 43.9112 160.759 44.484 161.137 44.8658 161.515 44.8658 161.894 45.0567 162.272 45.2476 162.839 45.8204 163.028 46.2022 163.596 46.5841 163.785 46.9659 164.352 47.3477 164.352 47.3477 164.352 47.3477 164.352 47.5387 164.352 47.5387 164.352 47.5387 164.352 47.5387 164.352 47.9205 164.352 47.7296 164.73 48.1114 165.109 48.6842 166.054 49.6388 165.676 50.2115 166.433 50.5933 166.811 50.7843 167 51.1661 167 51.5479 167 51.9298 166.433 52.5025 166.054 53.0753 165.487 54.0299 165.109 54.7935 164.73 55.5572 164.73 55.5572 163.217 55.3663 162.65 55.3663 162.461 55.3663 161.894 55.5572 161.515 55.5572 161.326 56.3209 160.759 56.7027 160.759 56.7027 160.759 56.7027 160.759 56.7027 160.759 56.8937 160.759 57.0846 160.759 57.2755 160.759 57.6573 160.759 57.8482 160.57 58.2301 160.57 58.8028 160.38 59.1847 160.57 59.7574 160.38 59.9483 160.38 60.712 160.38 60.712 160.002 60.9029 160.002 61.0938 159.813 60.9029 159.624 60.712 159.435 60.712 159.246 60.3302 159.057 59.3756 158.111 60.1393 157.354 60.9029 156.598 61.0938 156.22 61.4757 155.841 61.8575 155.463 62.0484 155.463 61.4757 154.896 61.8575 154.518 62.0484 154.328 62.2394 153.95 62.6212 153.95 62.6212 153.95 62.8121 154.139 62.8121 154.139 63.1939 154.328 63.5758 154.328 63.9576 154.328 64.1485 154.328 64.3395 154.328 64.5304 154.328 64.9122 154.139 65.6759 154.139 65.8668 153.761 66.0577 153.572 65.8668 153.572 65.6759 153.383 65.485 153.194 65.485 152.815 65.485 152.626 65.485 152.248 65.6759 151.681 65.485 151.302 65.2941 150.735 65.2941 150.168 65.2941 149.789 65.485 149.222 65.485 148.844 65.1031 148.276 64.9122 147.898 64.5304 147.331 65.1031 146.952 65.6759 146.574 64.9122 146.385 64.9122 145.818 65.1031 145.439 65.2941 145.061 65.2941 144.494 65.485 143.926 65.485 143.926 66.0577 143.359 66.2486 143.359 67.2032 142.413 67.2032 142.224 67.2032 142.035 66.4396 141.657 66.4396 141.279 66.4396 141.279 67.3941 140.9 67.5851 140.711 67.9669 140.333 68.1578 139.766 68.3487 139.387 68.7306 138.82 68.5397 138.253 68.5397 137.685 68.3487 137.118 68.1578 136.55 67.776 136.361 67.3941 136.172 66.8214 135.983 67.0123 135.605 67.0123 135.605 67.0123 135.416 67.2032 135.416 67.3941 135.416 67.5851 135.605 67.776 135.794 67.9669 135.794 67.9669 135.983 68.1578 135.983 68.1578 135.983 68.1578 135.794 68.1578 135.416 67.9669 134.659 67.5851 134.092 67.3941 133.335 67.2032 132.957 66.6305 132.39 67.0123 132.011 67.3941 131.633 67.776 131.444 67.5851 130.877 67.3941 129.931 67.0123 129.174 66.8214 128.229 66.4396 127.094 66.8214 126.527 67.3941 125.77 67.5851 125.581 67.9669 124.824 67.9669 124.446 67.9669 124.257 68.5397 123.879 68.7306 123.879 69.1124 123.69 69.3033 123.69 69.6852 123.501 69.8761 123.501 69.8761 123.501 69.8761 123.501 70.4488 123.501 70.4488 124.068 70.8307 124.446 71.0216 124.446 71.0216 124.446 71.0216 124.446 71.5944 124.446 72.358 123.311 72.5489 122.933 72.7399 122.555 72.7399 122.177 73.1217 122.177 73.3126 121.988 73.5035 120.664 73.5035 120.474 73.6945 120.285 73.8854 120.285 74.0763 120.285 74.2672 120.285 74.649 120.474 74.84 120.474 75.0309 120.853 75.4127 120.853 75.6036 120.853 75.7946 120.853 75.9855 120.853 76.3673 120.853 76.7492 120.664 77.3219 120.285 77.8947 120.096 78.6583 119.718 78.8493 119.529 79.422 119.151 79.8038 118.961 79.6129 117.827 79.6129 117.448 79.6129 117.259 79.2311 117.07 79.2311 116.692 79.0402 116.125 79.6129 116.314 79.9948 116.125 80.1857 115.935 80.5675 115.746 80.7584 115.557 81.1403 115.368 81.3312 114.99 81.5221 114.801 82.0949 114.612 82.8585 114.612 83.4313 114.233 84.004 113.855 84.9586 113.288 85.1496 112.531 85.1496 111.585 85.3405 111.018 86.1041 110.64 86.8678 110.072 87.8224 110.072 88.5861 109.505 89.3498 108.938 89.7316 107.992 90.3044 107.236 90.4953 106.857 90.8771 106.479 91.2589 106.29 91.4499 106.101 91.8317 105.912 91.8317 105.344 91.6408 104.588 92.5954 104.588 92.9772 103.642 93.1681 103.264 93.7409 103.075 94.3136 102.696 94.3136 102.507 94.6955 102.507 94.6955 102.318 94.6955 102.318 95.0773 101.562 95.0773 101.562 95.2682 101.562 95.4591 101.751 95.6501 101.751 95.6501 101.751 95.6501 101.751 95.6501 101.751 96.0319 101.751 96.2228 101.562 96.4137 101.562 96.7956 101.373 97.1774 100.994 97.5592 100.805 98.5138 100.427 99.8503 100.049 100.614 99.2922 101.378 98.3465 102.714 97.7791 102.523 96.2661 102.332 96.077 102.905 95.6987 103.096 95.5096 103.478 95.1313 103.669 94.3748 103.478 93.8075 103.478 93.2401 102.905 93.0509 102.523 92.6727 102.332 92.1053 102.905 91.5379 103.287 91.3488 103.669 90.7814 104.432 91.1597 104.814 90.5923 105.196 90.4032 105.96 90.4032 106.341 90.4032 106.723 90.214 107.296 90.4032 107.296 89.8358 107.487 89.4575 107.487 89.4575 108.06 89.2684 108.251 89.0793 108.06 88.1336 108.251 88.1336 108.632 88.1336 108.442 89.0793 108.632 89.2684 108.632 89.2684 108.632 89.2684 108.632 89.2684 109.014 89.2684 109.778 89.0793 109.969 89.0793 110.542 89.0793 110.733 88.8901 110.924 88.3227 110.924 88.3227 111.114 88.3227 111.114 88.3227 111.305 88.3227 111.496 88.3227 111.878 88.3227 112.069 88.5119 112.26 88.5119 112.451 88.5119 112.833 88.5119 113.024 88.5119 113.215 88.1336 113.596 87.188 113.405 86.4315 112.833 85.675 112.833 85.4858 112.642 84.9184 112.642 84.5402 112.451 84.1619 112.451 83.9728 112.26 83.5945 111.878 83.0272 112.26 82.6489 112.26 82.2707 112.069 81.5141 111.878 81.325 112.451 80.7576 112.642 80.3794 112.26 79.812 111.687 79.6229 111.305 79.4337 111.114 79.6229 111.305 79.0555 111.305 78.299 111.114 77.9207 110.542 77.7316 109.969 77.3533 109.969 76.7859 110.351 76.4077 110.924 75.8403 110.733 75.6512 110.733 75.0838 110.733 74.7055 110.924 74.1382 110.733 73.5708 110.542 73.3816 110.351 73.1925 109.969 73.1925 109.778 73.1925 109.587 73.1925 109.396 73.1925 109.205 73.1925 109.205 73.1925 109.014 73.1925 108.632 73.1925 108.442 73.1925 108.442 73.1925 107.869 72.8143 106.914 71.3012 108.06 71.1121 108.632 71.1121 108.823 70.5447 108.823 69.9773 108.823 69.41 109.014 69.5991 109.587 69.2208 109.969 68.8426 112.069 69.41 111.687 68.0861 111.496 67.5187 111.687 67.3296 110.924 67.1404 110.351 66.9513 110.733 66.1948 110.351 66.0057 110.16 66.0057 110.16 66.0057 110.16 66.0057 109.969 66.0057 109.778 66.1948 109.778 66.1948 109.587 66.1948 109.396 66.1948 109.205 66.1948 109.205 66.1948 109.014 66.1948 109.014 66.1948 108.823 65.6274 108.251 65.6274 108.06 65.2491 107.869 64.8709 107.678 64.8709 107.296 64.8709 106.914 64.6818 107.296 63.9252 107.487 63.7361 107.487 62.9796 108.06 62.9796 108.442 62.4122 108.442 62.4122 108.442 62.4122 108.632 62.4122 108.823 62.4122 109.014 63.1687 109.205 63.3579 109.396 63.547 109.778 63.9252 110.16 63.9252 110.16 63.9252 110.351 63.9252 110.351 63.7361 110.733 63.547 110.351 62.9796 110.733 62.7905 110.733 62.7905 110.733 62.7905 110.924 62.7905 111.305 62.7905 111.878 63.3579 112.069 63.7361 112.451 63.9252 112.642 63.9252 113.024 64.1144 113.215 64.3035 113.405 64.3035 113.596 64.3035 113.787 64.3035 114.169 64.1144 114.551 63.7361 114.742 63.7361 114.742 63.7361 114.742 63.7361 115.124 63.7361 114.933 64.3035 114.742 64.6818 114.551 65.06 114.742 65.4383 115.124 65.8165 115.315 65.8165 114.742 67.1404 114.742 67.3296 114.742 67.8969 115.124 68.0861 115.506 68.2752 116.078 68.2752 116.651 68.4643 117.033 68.4643 117.606 68.6534 117.987 68.6534 118.56 68.8426 118.56 68.8426 118.751 68.8426 118.942 68.8426 119.133 68.8426 119.324 68.6534 119.515 68.6534 119.897 68.4643 120.088 68.4643 120.279 68.4643 120.469 68.4643 120.469 68.4643 120.469 68.4643 120.851 68.4643 120.851 68.4643 121.042 68.4643 121.424 68.4643 121.806 68.2752 122.188 68.2752 122.379 68.2752 122.379 68.2752 122.57 68.2752 122.76 68.2752 122.951 68.2752 123.142 68.2752 123.333 68.4643 123.524 68.4643 123.715 68.4643 123.906 68.4643 123.906 68.4643 124.097 68.4643 124.097 68.4643 124.288 68.4643 124.288 68.4643 124.479 68.4643 124.67 68.4643 124.67 68.4643 124.861 68.4643 125.051 68.4643 125.242 68.4643 125.433 68.4643 125.624 68.4643 125.815 68.2752 126.006 68.2752 126.388 68.0861 126.77 68.0861 126.961 68.0861 127.342 68.2752 127.533 68.4643 127.533 68.6534 127.342 68.8426 127.152 68.8426 127.152 69.2208 127.342 69.41 127.342 69.5991 127.342 69.7882 127.342 69.9773 127.152 70.1665 127.152 70.3556 127.152 70.7338 127.152 70.923 126.961 71.1121 126.77 71.3012 126.579 71.3012 126.006 71.3012 126.197 72.0577 126.197 72.436 126.006 72.436 125.815 72.436 125.815 72.436 125.051 72.436 124.479 73.1925 123.715 73.5708 122.76 73.949 122.57 75.0838 122.379 76.0294 122.379 77.3533 123.524 78.1098 123.333 79.2446 123.333 79.4337 123.142 80.7576 123.524 80.7576 123.715 80.7576 123.715 80.7576 123.715 80.5685 124.097 80.3794 124.288 80.7576 124.67 80.1902 124.288 80.7576 125.051 81.1359 125.624 81.1359 125.815 81.1359 125.815 81.1359 126.006 81.1359 126.197 80.9468 126.579 80.7576 126.77 80.5685 126.961 80.1902 126.77 79.812 126.77 79.4337 126.77 79.0555 126.77 78.6772 126.961 78.299 127.152 77.9207 127.342 77.7316 127.342 77.3533 127.342 77.1642 127.342 76.9751 127.533 76.5968 127.724 76.4077 127.724 76.4077 127.724 76.4077 127.915 76.4077 127.915 76.7859 128.106 76.7859 128.87 77.1642 128.488 77.5425 128.488 78.1098 128.488 78.6772 129.061 78.8664 129.252 79.2446 129.443 79.4337 129.252 80.1902 129.061 80.5685 128.679 81.1359 129.252 81.325 129.633 81.7033 130.015 82.2707 129.824 82.6489 129.824 83.2163 129.824 83.5945 130.206 83.5945 130.206 83.9728 130.206 84.1619 130.015 84.3511 130.015 84.7293 130.015 85.1076 130.397 85.4858 130.588 86.0532 130.588 86.6206 130.397 86.9988 130.779 87.3771 130.97 87.5662 130.97 87.5662 131.161 87.5662 131.352 87.5662 131.543 87.188 131.734 86.9988 131.734 86.9988 131.734 86.9988 131.734 86.9988 131.734 86.9988 132.688 87.3771 132.688 87.3771 132.688 87.3771 132.879 87.3771 132.879 87.3771 133.261 87.3771 133.261 86.6206 133.452 86.4315 133.643 86.0532 133.834 85.675 134.025 85.2967 134.406 84.7293 133.834 84.3511 134.025 83.7837 134.025 82.838 133.643 81.8924 133.452 80.9468 133.452 80.5685 133.261 80.0011 134.025 80.0011 134.788 79.812 134.788 79.4337 134.979 78.8664 134.979 78.299 134.406 77.9207 134.597 77.3533 134.597 76.7859 134.979 76.7859 134.979 76.0294 134.788 75.462 134.406 74.8947 134.788 74.3273 134.979 74.1382 134.979 73.949 135.17 73.949 135.361 73.949 135.361 74.1382 135.552 74.1382 135.743 74.3273 135.934 74.5164 136.125 74.5164 136.125 74.5164 136.125 74.5164 136.125 74.5164 136.316 74.5164 136.316 74.1382 136.507 74.1382 136.507 74.1382 136.697 74.1382 136.697 74.1382 136.888 74.1382 137.079 74.3273 137.27 74.3273 137.461 74.3273 137.461 74.3273 137.461 74.3273 137.843 74.3273 138.416 74.1382 138.607 73.7599 138.798 73.3816 138.416 73.1925 138.416 72.8143 138.607 72.436 138.607 71.4904 138.798 71.1121 138.989 70.923 139.37 70.923 139.561 70.7338 139.561 70.5447 139.561 70.1665 139.561 69.7882 139.752 69.41 140.325 69.0317 140.325 68.4643 140.516 67.8969 140.325 67.3296 140.516 66.7622 140.516 66.573 139.752 66.3839 139.561 65.8165 139.561 65.4383 140.516 64.8709 140.707 64.6818 141.089 64.3035 141.28 63.7361 141.47 63.1687 141.852 62.7905 141.661 62.034 141.852 61.4666 142.043 60.7101 141.852 60.1427 141.661 59.5753 141.47 59.0079 141.089 58.4405 141.661 58.0623 142.043 57.684 142.425 57.8731 142.807 57.684 143.189 57.3058 143.571 56.9275 143.761 56.3601 143.952 55.7927 144.334 55.6036 144.716 55.0362 145.098 54.658 145.289 54.0906 145.671 53.7123 146.052 53.5232 146.434 53.5232 146.816 53.145 146.816 53.145 147.007 53.145 147.198 53.145 147.198 53.145 147.198 53.145 147.198 53.145 147.389 53.145 147.389 53.145 147.389 53.145 147.58 53.145 147.58 53.145 147.771 52.9558 148.153 52.9558 148.344 52.7667 148.534 52.7667 148.725 52.7667 148.725 52.7667 148.916 53.145 149.298 53.5232 149.68 53.7123 150.253 53.9015 150.444 53.9015 150.444 53.9015 150.635 53.9015 150.825 53.9015 151.016 53.7123 151.016 53.145 151.016 52.3884 149.68 52.1993 149.489 51.2537 149.298 50.4972 149.68 50.4972 150.062 50.308 150.444 49.9298 150.825 49.5515 151.207 49.1733 151.589 48.795 151.78 48.6059 151.398 48.0385 151.207 47.8494 151.016 47.8494 151.016 47.6602 150.825 47.282 151.398 47.0929 151.207 46.9037 151.207 46.7146 150.444 46.7146 150.253 46.5255 150.062 46.5255 149.871 46.5255 149.68 46.5255 149.489 46.5255 149.298 46.5255 149.107 46.5255 148.916 46.7146 148.916 46.7146 148.916 46.7146 148.534 46.7146 148.153 46.1472 147.771 45.9581 147.771 45.9581 147.58 45.9581 147.58 45.9581 147.198 45.9581 146.625 46.3363 146.243 46.5255 146.243 46.5255 146.052 46.5255 146.052 46.5255 145.671 46.5255 146.052 45.9581 146.243 45.9581 146.625 45.5798 147.007 45.2016 147.198 44.8233 147.389 44.4451 147.58 44.0668 147.007 43.8777 146.434 43.8777 146.625 43.3103 146.625 42.932 146.625 42.7429 146.434 42.7429 146.052 42.7429 145.862 42.7429 145.671 42.7429 145.671 42.932 145.671 43.3103 145.671 43.3103 145.48 43.4994 145.48 43.4994 145.289 43.4994 145.289 43.4994 145.098 43.4994 144.907 43.4994 145.098 43.3103 145.098 42.7429 145.289 42.7429 145.671 42.1755 146.052 41.7973 145.862 41.2299 145.289 41.2299 144.907 41.2299 145.098 41.2299 144.716 40.8516 144.525 40.4734 144.334 40.4734 144.143 40.4734 143.952 40.4734 143.571 40.6625 143.38 40.8516 142.998 41.2299 142.425 41.6081 142.043 41.9864 141.852 42.1755 141.661 43.1212 141.28 43.1212 141.28 43.1212 141.089 43.1212 141.089 43.1212 140.516 43.1212 140.325 42.932 139.943 42.7429 139.752 42.7429 139.561 42.7429 139.561 42.7429 139.37 42.7429 139.37 42.7429 139.37 42.7429 139.37 42.7429 139.179 42.7429 139.179 42.7429 138.989 42.7429 138.798 42.7429 138.607 42.5538 138.416 42.3647 137.652 42.3647 137.652 41.9864 137.652 41.7973 137.652 41.6081 137.652 41.6081 137.461 41.6081 137.079 42.1755 136.888 42.3647 136.697 42.7429 136.125 42.932 135.743 43.1212 135.552 43.4994 135.552 44.0668 135.361 44.2559 134.979 44.8233 134.597 45.2016 134.406 45.5798 134.216 45.9581 133.452 45.9581 133.07 45.9581 132.879 46.1472 132.688 46.3363 132.497 46.3363 132.497 46.3363 132.497 46.3363 132.497 46.3363 132.306 46.3363 131.925 46.1472 131.734 46.1472 131.543 46.1472 131.352 46.3363 131.352 46.3363 130.97 46.5255 130.779 47.0929 130.779 47.4711 130.588 47.6602 130.97 48.2276 130.588 48.4168 130.397 48.6059 129.824 48.4168 129.443 48.6059 129.252 48.795 128.87 49.1733 128.679 49.3624 128.488 49.7406 128.106 49.7406 128.106 50.1189 127.915 50.4972 128.488 50.8754 128.297 51.0645 127.915 51.2537 127.724 51.6319 127.342 51.8211 127.342 51.8211 127.152 51.8211 127.152 51.8211 127.152 51.8211 126.961 51.6319 126.961 51.6319 126.77 51.6319 126.77 51.6319 126.579 51.6319 126.579 51.6319 126.579 51.6319 126.579 51.6319 126.006 51.6319 124.861 52.0102 124.479 52.3884 124.479 52.3884 124.288 52.3884 124.288 52.3884 124.097 52.3884 123.906 52.1993 123.715 52.0102 123.524 51.8211 123.333 51.6319 123.142 51.6319 122.951 51.6319 122.951 51.8211 122.76 51.8211 122.57 52.0102 122.951 52.5776 122.76 52.9558 122.76 53.3341 123.142 53.7123 123.142 54.0906 123.142 54.2797 124.861 54.4688 125.051 54.4688 125.433 54.658 126.006 54.8471 125.624 55.2254 125.433 55.7927 125.624 56.171 125.433 56.7384 125.433 57.1166 125.242 57.1166 125.051 57.1166 125.051 57.1166 124.861 57.1166 124.861 57.1166 124.67 57.1166 124.67 57.1166 124.67 57.1166 124.288 57.1166 124.097 57.1166 123.906 57.4949 123.906 57.4949 123.715 57.4949 123.524 57.4949 123.524 57.4949 123.333 57.4949 123.333 57.4949 123.333 57.4949 123.333 57.4949 123.142 57.4949 123.142 57.4949 122.951 57.4949 122.76 57.684 122.57 57.8731 122.379 57.8731 121.997 57.8731 121.997 57.8731 121.806 57.8731 121.806 57.8731 121.615 57.8731 121.615 57.8731 121.424 57.8731 121.424 57.8731 121.424 57.8731 121.424 57.8731 120.66 57.8731 119.897 58.2514 119.324 58.2514 118.942 58.2514 118.751 58.2514 118.369 58.0623 117.987 57.684 117.797 57.684 117.415 57.684 117.224 57.684 116.842 57.8731 116.46 58.0623 116.269 58.2514 116.078 58.4405 115.887 58.4405 115.887 58.4405 115.887 58.4405 115.887 58.4405 115.696 58.4405 115.506 58.4405 115.315 58.4405 115.124 58.4405 115.124 58.4405 114.933 58.4405 114.933 58.6297 114.933 59.0079 114.742 59.0079 114.742 59.0079 114.551 59.0079 114.551 59.0079 114.36 58.8188 114.169 58.6297 114.169 58.6297 114.169 58.6297 114.169 58.6297 114.169 58.6297 113.978 58.4405 113.978 58.4405 113.787 58.4405 113.787 58.4405 113.787 58.4405 113.787 58.4405 113.787 58.4405 113.596 58.4405 113.596 58.4405 113.596 58.4405 113.405 58.4405 113.215 58.4405 113.215 58.2514 113.215 58.2514 113.024 58.0623 113.024 58.0623 112.833 58.0623 112.833 58.0623 112.642 58.0623 112.451 58.0623 112.26 58.2514 112.069 58.4405 111.878 58.6297 111.878 58.6297 111.878 58.6297 111.878 58.6297 111.878 58.6297 111.496 58.4405 111.114 57.8731 110.733 57.684 110.351 57.4949 110.16 57.1166 109.969 56.7384 109.778 56.5493 110.542 55.9819 110.351 55.6036 110.16 55.4145 109.969 55.4145 109.778 55.2254 109.587 55.0362 109.778 54.8471 109.587 54.658 109.396 54.658 110.16 53.7123 110.16 53.5232 109.969 52.7667 110.16 52.7667 109.778 52.1993 109.396 51.6319 109.014 51.4428 108.823 51.4428 108.442 51.4428 108.251 51.6319 107.869 52.0102 107.487 52.3884 107.487 52.3884 106.914 52.3884 106.723 52.3884 105.96 52.3884 105.96 52.5776 105.769 52.9558 105.769 53.3341 105.96 53.5232 106.532 54.0906 106.151 54.2797 105.769 54.658 105.578 55.2254 105.578 55.6036 105.387 56.171 105.387 56.5493 105.005 56.9275 105.005 57.3058 105.005 57.8731 105.578 58.4405 105.769 58.8188 106.151 59.3862 106.151 60.3318 106.151 60.7101 106.151 60.8992 106.151 61.4666 105.96 61.4666 105.769 61.4666 105.769 61.4666 105.769 61.4666 105.578 61.2775 105.578 61.2775 105.387 61.2775 105.196 61.2775 105.005 61.2775 104.814 61.4666 104.241 61.6557 103.478 61.6557 102.714 61.6557 102.714 61.6557 102.523 61.6557 102.523 61.6557 101.759 61.6557 101.378 61.0883 100.805 60.8992 100.805 60.8992 100.614 60.8992 100.614 60.8992 100.232 60.8992 100.041 61.2775 99.6593 61.4666 99.6593 61.4666 99.4684 61.4666 99.2775 61.4666 98.8957 61.4666 98.5138 61.4666 98.132 61.2775 97.9411 61.0883 97.7502 60.5209 97.3683 60.5209 97.3683 60.5209 97.3683 60.5209 97.1774 60.5209 96.9865 60.5209 96.9865 60.7101 96.7956 60.7101 96.6046 60.7101 96.6046 60.7101 96.6046 60.7101 96.4137 60.7101 96.2228 60.5209 95.841 60.3318 95.841 60.3318 95.841 60.3318 95.6501 60.3318 95.6501 60.3318 95.4591 60.3318 95.4591 60.5209 95.2682 60.5209 95.2682 60.5209 95.0773 60.5209 95.0773 60.5209 94.8864 60.5209 94.6955 60.3318 94.5045 59.9536 94.5045 59.5753 93.9318 59.3862 93.9318 59.3862 93.9318 59.3862 93.7409 59.3862 93.359 59.3862 93.359 59.7644 92.9772 59.9536 92.7863 59.9536 92.7863 59.9536 92.7863 59.9536 92.4044 59.9536 92.2135 59.7644 91.8317 59.3862 91.4499 59.0079 89.7316 59.0079 89.5407 58.4405 89.5407 57.8731 89.5407 57.4949 89.1588 56.9275 88.9679 56.7384 88.777 56.5493 88.5861 56.5493 88.5861 56.5493 88.3952 56.5493 88.3952 56.5493 88.2042 56.5493 88.0133 56.7384 88.0133 56.7384 87.8224 56.7384 87.8224 56.7384 87.8224 56.5493 87.4406 56.5493 87.4406 56.171 87.2497 55.9819 87.0587 55.7927 86.486 55.7927 86.2951 55.7927 86.1041 55.7927 86.1041 55.7927 85.9132 55.7927 85.5314 55.9819 84.9586 56.171 84.5768 56.5493 84.5768 56.5493 83.6222 56.171 83.6222 56.171 83.6222 56.171 83.6222 56.171 83.6222 56.171 83.4313 56.171 83.0494 56.3601 82.8585 56.5493 82.8585 56.5493 82.8585 56.9275 82.6676 56.9275 82.6676 56.9275 81.9039 56.5493 81.713 56.5493 81.713 56.5493 81.713 56.5493 81.5221 56.5493 81.5221 56.5493 81.3312 56.5493 81.3312 56.5493 81.1403 56.5493 81.1403 56.5493 81.1403 56.5493 80.7584 56.5493 80.5675 56.5493 80.3766 56.5493 80.1857 56.3601 80.3766 55.7927 80.3766 55.6036 80.1857 55.2254 79.8038 55.2254 79.422 55.2254 79.2311 55.2254 79.0402 55.2254 78.8493 55.2254 78.6583 55.2254 78.4674 55.6036 78.2765 55.6036 78.0856 55.6036 78.0856 55.4145 77.8947 55.4145 77.7037 55.0362 77.131 54.658 76.7492 54.4688 76.3673 54.4688 76.1764 54.2797 75.9855 54.2797 75.7946 54.2797 75.6036 54.2797 75.4127 54.4688 75.4127 54.4688 75.2218 54.4688 75.0309 54.4688 74.649 54.4688 74.649 54.0906 74.2672 53.9015 73.8854 53.7123 73.3126 53.7123 73.1217 53.145 73.1217 52.9558 73.1217 52.5776 72.9308 52.5776 72.9308 52.3884 72.9308 52.3884 72.7399 52.3884 72.7399 52.3884 72.5489 52.5776 72.7399 52.7667 71.7853 52.3884 71.5944 51.2537 70.6398 51.2537 69.6852 51.0645 69.1124 51.0645 68.5397 50.1189 68.3487 49.9298 68.1578 49.7406 68.1578 49.7406 67.9669 49.7406 67.9669 50.1189 67.5851 50.308 67.5851 50.308 67.5851 50.308 67.5851 50.308 67.2032 50.308 66.0577 49.3624 65.8668 49.1733 65.485 48.9841 65.485 48.6059 65.8668 48.4168 66.4396 48.4168 66.2486 48.0385 66.2486 47.6602 66.2486 47.282 66.6305 47.0929 66.8214 46.7146 66.8214 46.3363 66.4396 45.9581 66.6305 45.3907 67.0123 45.0124 67.2032 45.0124 67.2032 44.4451 67.2032 44.2559 67.3941 44.0668 67.5851 43.8777 67.776 43.6886 67.9669 43.3103 68.1578 43.1212 68.3487 42.7429 68.9215 42.7429 69.1124 42.3647 69.3033 41.7973 70.4488 41.0408 69.6852 40.6625 69.3033 40.4734 69.3033 40.0951 68.9215 39.7169 68.7306 39.5277 68.7306 39.3386 68.5397 39.3386 68.3487 39.3386 68.3487 39.3386 68.3487 39.3386 68.1578 39.5277 68.1578 39.5277 67.9669 39.5277 67.9669 39.5277 67.9669 39.5277 67.776 39.5277 67.3941 39.3386 67.3941 39.1495 67.2032 39.1495 67.2032 39.1495 67.0123 39.1495 67.0123 39.1495 67.0123 39.1495 66.8214 39.1495 66.8214 39.1495 66.6305 39.1495 66.6305 38.7712 66.4396 38.5821 66.4396 38.0147 65.8668 37.0691 65.2941 37.0691 65.1031 37.0691 65.1031 37.0691 65.1031 37.0691 65.1031 37.0691 65.1031 37.0691 64.9122 37.0691 64.7213 37.0691 64.5304 36.6908 64.1485 36.6908 63.7667 36.5017 63.5758 36.5017 63.1939 36.5017 62.6212 36.5017 61.8575 36.3126 61.8575 35.5561 61.8575 34.9887 61.4757 34.043 60.712 33.8539 60.712 33.8539 60.712 33.8539 60.5211 33.8539 59.9483 33.8539 59.5665 34.9887 59.7574 34.9887 59.3756 34.9887 59.1847 34.6104 59.1847 34.4213 59.1847 34.043 58.9937 34.043 58.8028 33.8539 58.8028 33.2865 59.9483 33.0974 59.3756 32.53 58.8028 31.9626 59.1847 31.3952 59.1847 30.6387 59.1847 30.4496 58.6119 30.2605 58.6119 30.0713 58.421 29.6931 58.421 29.6931 58.6119 29.504 58.8028 29.3148 57.8482 29.3148 57.8482 29.1257 57.8482 28.7474 57.8482 28.1801 57.8482 27.8018 57.8482 27.6127 57.8482 27.0453 58.2301 27.0453 58.2301 27.0453 58.421 27.0453 58.421 27.0453 59.1847 27.4235 58.8028 27.6127 59.1847 28.3692 59.1847 28.5583 59.7574 29.1257 60.1393 29.1257 60.1393 29.1257 60.1393 29.1257 60.3302 29.1257 60.9029 28.7474 60.5211 28.7474 60.712 28.1801 60.712 27.8018 61.4757 27.9909 61.4757 27.6127 61.6666 27.4235 62.4303 27.4235 62.6212 27.4235 63.3849 27.0453 63.5758 26.4779 63.1939 25.7214 62.8121 24.9649 61.4757 24.7758 62.2394 23.641 62.8121 22.8845 61.4757 22.5062 60.712 22.5062 60.712 22.5062 60.5211 22.5062 60.5211 22.5062 60.5211 22.5062 60.5211 22.5062 60.3302 22.5062 59.9483 22.5062 59.7574 22.3171 59.9483 21.5606 59.9483 21.3715 59.9483 20.9932 59.9483 20.8041 60.1393 20.4258 60.5211 20.4258 60.712 20.0476 60.712 20.0476 60.5211 19.4802 60.5211 19.4802 60.3302 19.291 60.3302 19.291 60.3302 19.291 60.3302 19.291 60.1393 19.291 60.1393 19.291 60.1393 19.291 60.1393 19.291 59.9483 19.291 59.9483 19.291 59.9483 19.291 59.7574 19.1019 59.5665 18.9128 59.5665 18.7237 59.7574 18.5345 59.9483 18.3454 60.1393 18.1563 60.3302 18.1563 60.5211 18.1563 60.9029 18.5345 61.2848 18.5345 61.4757 18.7237 61.8575 18.9128 62.0484 18.9128 62.2394 18.9128 62.4303 18.7237 62.4303 18.5345 62.4303 18.1563 62.8121 18.1563 63.003 17.778 63.1939 17.2106 63.1939 16.8324 63.3849 16.265 63.3849 16.0759 64.1485 16.0759 64.3395 15.8867 64.9122 15.6976 64.1485 15.1302 64.7213 14.9411 64.7213 14.752 64.9122 14.752 65.1031 14.752 65.1031 14.752 65.1031 14.752 65.1031 14.752 65.2941 14.752 65.2941 14.752 65.2941 14.752 65.485 14.752 65.485 14.752 65.6759 14.752 66.2486 14.3737 66.0577 13.9955 66.0577 13.6172 66.0577 13.0498 66.2486 12.6716 66.4396 12.1042 66.4396 11.7259 67.0123 11.5368 67.0123 11.1585 67.2032 10.7803 67.2032 10.0238 67.0123 9.64552 67.0123 9.26727 66.2486 8.88901 65.8668 8.69989 65.2941 8.1325 65.2941 7.94337 64.3395 7.94337 63.9576 7.94337 63.1939 7.56512 63.003 7.37599 62.8121 7.18686 62.6212 6.80861 62.4303 6.80861 62.4303 6.80861 62.2394 6.80861 62.2394 6.80861 61.6666 6.99773 61.2848 7.37599 60.712 7.56512 60.712 7.56512 60.712 7.56512 60.712 7.56512 60.5211 7.56512 60.3302 7.56512 60.1393 7.56512 59.7574 7.37599 59.5665 7.37599 59.5665 7.37599 59.3756 7.37599 59.3756 7.37599 59.3756 7.37599 59.1847 7.94337 58.8028 7.94337 58.2301 7.94337 58.2301 7.94337 58.0392 7.94337 57.8482 7.94337 57.8482 7.94337 57.6573 7.94337 57.6573 7.94337 57.2755 7.94337 57.0846 7.94337 56.8937 8.1325 56.3209 8.32163 56.5118 8.88901 55.9391 9.07814 55.5572 9.4564 54.7935 9.64552 54.2208 9.64552 54.0299 9.64552 53.839 9.83465 53.839 9.83465 53.839 10.0238 53.648 10.0238 53.648 10.0238 53.4571 10.0238 53.2662 9.83465 53.2662 9.83465 52.6934 9.83465 52.8844 9.4564 52.6934 9.07814 52.3116 8.1325 51.9298 7.94337 51.1661 7.94337 50.9752 7.94337 50.7843 7.94337 50.5933 7.94337 50.5933 7.94337 50.4024 7.94337 50.4024 7.94337 49.4478 7.94337 49.2569 7.18686 49.066 6.43035 48.8751 5.86297 48.8751 5.86297 48.3023 5.67384 47.9205 5.48471 47.7296 4.7282 47.3477 4.53907 46.775 4.53907 46.3931 4.34994 45.8204 4.16081 45.2476 3.97169 45.4385 3.4043 45.0567 3.02605 44.484 2.64779 43.9112 2.26954 43.5294 1.51302 43.3384 1.13477 43.3384 1.3239 42.9566 0.94564 42.5748 0.756512 42.9566 0.378256 42.5748 0.189128 42.3839 0.189128 42.3839 0.189128 42.1929 0.189128 42.002 0.189128 42.002 0.378256 41.6202 0.378256 41.6202 0.378256 41.4293 0.567384 41.4293 0.567384 41.4293 0.567384 41.2383 0.378256 41.2383 0.378256 41.0474 0.378256 41.0474 0.378256 40.8565 0.378256 40.8565 0.378256 40.8565 0.378256 40.6656 0.567384 40.6656 0.567384 40.6656 0.756512 40.4747 0.756512 40.2838 0.756512 39.9019 0.567384 39.9019 0.378256 39.711 0.189128 39.5201 0 39.3292 0" fill="#C91429" fill-rule="evenodd" transform="matrix(1.00145 0 -0 1 169 20)"/><path d="M95.082 127.948C3.79191 127.948 3.79191 127.948 3.79191 127.948 1.70636 127.948 0 126.242 0 124.157 0 3.79105 0 3.79105 0 3.79105 0 1.70597 1.70636 0 3.79191 0 95.082 0 95.082 0 95.082 0 97.2624 0 98.9687 1.70597 98.9687 3.79105 98.9687 124.157 98.9687 124.157 98.9687 124.157 98.9687 126.242 97.2624 127.948 95.082 127.948" fill="#660D0A" fill-rule="evenodd" transform="matrix(1.00125 0.0197707 -0.0197421 0.999805 244.872 50.9615)"/><rect x="0" y="0" width="80.747" height="112.053" fill="#F3EEDD" transform="matrix(1.00125 0.0197707 -0.0197421 0.999805 253.811 59.2627)"/><rect x="0" y="0" width="88.8216" height="122.099" fill="#FFFFFF" transform="matrix(1.00125 0.0197707 -0.0197421 0.999805 249.879 53.6341)"/><path d="M8.7322 9.19578C7.11864 9.19578 7.11864 9.19578 7.11864 9.19578 5.50508 9.19578 4.27118 7.86855 4.27118 6.25692 4.27118 4.64529 5.50508 3.41287 7.11864 3.41287 8.7322 3.41287 8.7322 3.41287 8.7322 3.41287 10.3458 3.41287 11.5797 4.64529 11.5797 6.25692 11.5797 7.86855 10.3458 9.19578 8.7322 9.19578M9.58644 0C6.2644 0 6.2644 0 6.2644 0 2.84746 0 0 2.84405 0 6.25692 0 9.76459 2.84746 12.5138 6.2644 12.5138 9.58644 12.5138 9.58644 12.5138 9.58644 12.5138 13.0034 12.5138 15.8508 9.76459 15.8508 6.25692 15.8508 2.84405 13.0034 0 9.58644 0" fill="#660D0A" fill-rule="evenodd" transform="matrix(1.00125 0.0197707 -0.0197421 0.999805 283.76 41.3892)"/><path d="M11.3811 0C7.49253 0 7.49253 0 7.49253 0 3.31947 0 0 3.41984 0 7.50466 0 11.6845 3.31947 15.1043 7.49253 15.1043 11.3811 15.1043 11.3811 15.1043 11.3811 15.1043 15.5541 15.1043 18.9684 11.6845 18.9684 7.50466 18.9684 3.41984 15.5541 0 11.3811 0M10.3378 11.0195C8.53579 11.0195 8.53579 11.0195 8.53579 11.0195 6.54411 11.0195 5.02663 9.49957 5.02663 7.50466 5.02663 5.60474 6.54411 3.98982 8.53579 3.98982 10.3378 3.98982 10.3378 3.98982 10.3378 3.98982 12.3295 3.98982 13.847 5.60474 13.847 7.50466 13.847 9.49957 12.3295 11.0195 10.3378 11.0195" fill="#660D0A" fill-rule="evenodd" transform="matrix(1.00125 0.0197707 -0.0197421 0.999805 282.29 40.1302)"/><path d="M54.7974 14.1823C0 14.1823 0 14.1823 0 14.1823 0 3.68739 0 3.68739 0 3.68739 0 1.60733 1.61169 0 3.6974 0 51.1 0 51.1 0 51.1 0 53.0909 0 54.7974 1.60733 54.7974 3.68739L54.7974 14.1823Z" fill="#660D0A" fill-rule="evenodd" transform="matrix(1.00125 0.0197707 -0.0197421 0.999805 264.195 47.7659)"/><rect x="0" y="0" width="54.7974" height="4.34698" fill="#660D0A" transform="matrix(1.00125 0.0197707 -0.0197421 0.999805 264 57.5993)"/><path d="M48.911 7.83453C48.4695 7.8425 48.1229 7.97386 47.8713 8.2286L47.4871 9.22024 47.8215 10.1871C48.0482 10.4432 48.4113 10.5761 48.911 10.5856 49.3433 10.5772 49.6842 10.4469 49.9339 10.1945 50.1835 9.94192 50.311 9.61746 50.3161 9.22076 50.3168 8.82239 50.2013 8.49405 49.9695 8.23573 49.7377 7.97742 49.3848 7.84365 48.911 7.83453ZM35.3866 5.38705C34.9336 5.39617 34.5722 5.53455 34.3019 5.8023 34.0317 6.07005 33.8933 6.41244 33.8866 6.82969L33.8866 8.6709C33.8787 9.14381 33.9847 9.55508 34.2046 9.90471 34.4246 10.2542 34.806 10.4377 35.3487 10.4551 35.8763 10.4457 36.2593 10.3033 36.4974 10.0281 36.7355 9.7528 36.8526 9.40171 36.8487 8.97461L36.8487 7.09544C36.8554 6.62557 36.747 6.22699 36.5235 5.89959 36.3 5.57219 35.9211 5.40131 35.3866 5.38705ZM12.2871 5.33023C11.8191 5.33767 11.4591 5.47448 11.2071 5.74066 10.9552 6.00673 10.8278 6.35719 10.8249 6.79174L10.8249 8.93666C10.8254 9.3712 10.948 9.72156 11.1929 9.98774 11.4377 10.2539 11.8024 10.3907 12.2871 10.3982 12.7475 10.3931 13.1083 10.261 13.3694 10.002 13.6304 9.74295 13.7634 9.38787 13.7681 8.93666L13.7681 6.79174C13.7658 6.34053 13.6376 5.98545 13.3836 5.7264 13.1296 5.46736 12.7641 5.33537 12.2871 5.33023ZM62.9362 3.56806C63.9134 3.58504 64.6475 3.88749 65.1383 4.47551 65.6292 5.06343 65.8749 5.83533 65.8753 6.79111L65.8753 11.8188C65.8753 11.9927 65.7805 12.0813 65.591 12.0844L64.1128 12.0844C64.0173 12.084 63.9431 12.0611 63.8901 12.0157 63.8373 11.9702 63.8103 11.9045 63.8096 11.8188L63.8096 6.81008C63.8139 6.38477 63.7008 6.04007 63.4702 5.77609 63.2396 5.51202 62.8654 5.37604 62.3476 5.36808 61.9204 5.37604 61.5691 5.51202 61.2937 5.77609 61.0184 6.04007 60.876 6.38477 60.8665 6.81008L60.8665 11.8188C60.8696 11.9927 60.7686 12.0813 60.5633 12.0844L59.1041 12.0844C59.0085 12.084 58.9344 12.0611 58.8814 12.0157 58.8285 11.9702 58.8016 11.9045 58.8009 11.8188L58.8009 3.96601C58.8009 3.87952 58.8246 3.81086 58.8719 3.75991 58.9193 3.70906 58.9903 3.68296 59.0851 3.68181L60.5823 3.68181C60.6672 3.68023 60.7295 3.69753 60.7694 3.73391 60.8092 3.77018 60.8289 3.83497 60.8286 3.92817L60.8286 4.2692C60.8381 4.26993 60.8476 4.27308 60.857 4.27863 60.8665 4.28419 60.876 4.28733 60.8854 4.28817 61.162 4.03426 61.4872 3.85038 61.8609 3.73632 62.2348 3.62215 62.5932 3.56617 62.9362 3.56806ZM55.1668 3.66063 56.645 3.66063C56.7322 3.66021 56.8041 3.68474 56.8605 3.73412 56.917 3.7835 56.9462 3.86023 56.9482 3.96413L56.9482 11.7808C56.9482 11.8931 56.9245 11.9722 56.8771 12.018 56.8297 12.0639 56.7587 12.086 56.664 12.0844L55.1858 12.0844C55.0902 12.0844 55.0159 12.0607 54.9631 12.0133 54.9102 11.9659 54.8833 11.8947 54.8826 11.7998L54.8826 3.96413C54.8825 3.86852 54.9063 3.79419 54.9536 3.74125 55.001 3.68831 55.072 3.66136 55.1668 3.66063ZM49.2715 3.49101 49.2717 3.49226C50.488 3.50201 51.3463 3.79503 51.8464 4.37131 52.3464 4.94758 52.5882 5.74842 52.5715 6.7737L52.5715 11.8193C52.5719 11.9132 52.5522 11.9812 52.5123 12.023 52.4724 12.0648 52.4101 12.0854 52.3251 12.0845L50.828 12.0845C50.6923 12.0844 50.6225 12.0089 50.6185 11.8579L50.6185 11.4785 50.5616 11.4785C50.2751 11.7576 49.9612 11.9489 49.6201 12.0524 49.279 12.1559 48.9225 12.205 48.5506 12.1994 47.5964 12.1856 46.8627 11.9144 46.3498 11.386 45.8367 10.8576 45.5774 10.1547 45.5719 9.27769 45.5758 8.42391 45.843 7.72194 46.3735 7.17176 46.9039 6.62148 47.6738 6.33696 48.6834 6.31799 48.9485 6.31442 49.2387 6.34524 49.5537 6.41045 49.8688 6.47566 50.1541 6.59664 50.4098 6.77328L50.4667 6.77328 50.4667 6.35594C50.4759 5.99971 50.3676 5.71592 50.1418 5.50447 49.9161 5.29302 49.5185 5.18472 48.9489 5.17958 48.6747 5.18 48.3695 5.2124 48.0335 5.27687 47.6975 5.34124 47.3829 5.43528 47.0897 5.55909 46.9596 5.60647 46.864 5.62073 46.8026 5.60175 46.7414 5.58278 46.6979 5.53057 46.6722 5.44524L46.3498 4.42068C46.3299 4.33377 46.3315 4.2563 46.3545 4.18826 46.3773 4.12033 46.4264 4.07127 46.5015 4.04128 46.8861 3.86894 47.3169 3.73454 47.794 3.63809 48.2711 3.54164 48.7636 3.49258 49.2715 3.49101ZM35.9372 3.58703C36.8987 3.60161 37.6312 3.89462 38.1347 4.46608 38.6383 5.03753 38.8918 5.8001 38.8954 6.75379L38.8954 8.97461C38.8946 9.90586 38.6308 10.6708 38.1039 11.2696 37.577 11.8682 36.7915 12.1777 35.7474 12.1983 35.3851 12.2006 35.0512 12.1675 34.7458 12.0988 34.4404 12.0301 34.173 11.9117 33.9436 11.7435 33.9246 11.7593 33.9055 11.7656 33.8866 11.7625L33.8866 15.2149C33.8858 15.3188 33.859 15.3955 33.806 15.4449 33.7531 15.4943 33.6789 15.5188 33.5834 15.5184L32.1242 15.5184C32.0287 15.5173 31.9543 15.4912 31.9015 15.4402 31.8486 15.3892 31.8217 15.3204 31.821 15.2339L31.821 3.94704C31.8202 3.86977 31.8407 3.80656 31.8825 3.7576 31.9244 3.70864 31.9923 3.68338 32.0862 3.68181L33.5076 3.68181C33.5941 3.68139 33.6627 3.7012 33.7137 3.74104 33.7646 3.78087 33.7906 3.84325 33.7919 3.92817L33.7918 4.28817 33.8487 4.28817C34.1172 4.0351 34.444 3.85436 34.8288 3.74575 35.2138 3.63725 35.5832 3.58431 35.9372 3.58703ZM21.274 3.51124C21.7325 3.51239 22.1825 3.60947 22.6239 3.80247 23.0655 3.99558 23.425 4.27737 23.7026 4.64807L23.7594 4.64807C24.0216 4.30222 24.3882 4.02755 24.8594 3.82386 25.3305 3.62016 25.8114 3.51596 26.3018 3.51124 27.4015 3.5277 28.2234 3.83099 28.7677 4.42089 29.3119 5.0109 29.5836 5.78826 29.5829 6.75316L29.5829 11.7808C29.5829 11.9864 29.4881 12.0876 29.2986 12.0844L27.8204 12.0844C27.6151 12.0844 27.5141 11.9896 27.5172 11.7998L27.5172 6.75316C27.5176 6.35269 27.4028 6.01522 27.173 5.74045 26.9431 5.46578 26.5958 5.32268 26.131 5.31126 25.7493 5.32384 25.4256 5.46935 25.1602 5.74758 24.8948 6.02581 24.7563 6.36107 24.7448 6.75316L24.7448 11.7808C24.746 11.8848 24.7247 11.9615 24.6809 12.0108 24.6371 12.0603 24.5636 12.0848 24.4605 12.0844L23.0013 12.0844C22.7961 12.0844 22.695 11.9896 22.6981 11.7998L22.6981 6.75316C22.697 6.36107 22.5807 6.02581 22.3493 5.74758 22.1178 5.46935 21.7784 5.32384 21.331 5.31126 20.8994 5.32268 20.5615 5.46578 20.3174 5.74045 20.0734 6.01522 19.9492 6.35269 19.9448 6.75316L19.9448 11.7808C19.9452 11.8848 19.9206 11.9615 19.8714 12.0108 19.822 12.0603 19.7454 12.0848 19.6416 12.0844L18.1634 12.0844C18.0679 12.0844 17.9937 12.0606 17.9407 12.0133 17.8878 11.9659 17.861 11.8947 17.8602 11.7998L17.8602 6.75316C17.8672 5.80482 18.1658 5.03219 18.7559 4.43515 19.346 3.83811 20.1855 3.53011 21.274 3.51124ZM12.2871 3.51124C13.373 3.51627 14.2322 3.79503 14.8646 4.34761 15.4969 4.90009 15.82 5.69579 15.8338 6.73481L15.8338 8.95564C15.8196 10.0121 15.4973 10.8156 14.8669 11.3666 14.2365 11.9175 13.3829 12.1947 12.3061 12.1983 11.2118 12.1889 10.3503 11.9045 9.72146 11.3452 9.09266 10.7861 8.77197 10.0085 8.75938 9.01256L8.75938 6.73481C8.77469 5.76215 9.09936 4.98532 9.7333 4.40443 10.3672 3.82354 11.2185 3.52571 12.2871 3.51124ZM69.9867 1.29136C70.1186 1.26578 70.2149 1.2792 70.2757 1.33172 70.3365 1.38435 70.3665 1.45941 70.3658 1.55701L70.3658 3.66294 72.1302 3.66294C72.2259 3.66377 72.3002 3.69061 72.3531 3.74345 72.4061 3.79639 72.4329 3.87061 72.4338 3.96612L72.4338 5.04602C72.4329 5.14153 72.4061 5.21575 72.3531 5.26859 72.3001 5.32153 72.2259 5.34837 72.1302 5.34921L70.3658 5.34921 70.3658 9.3733C70.3618 9.67858 70.4219 9.91267 70.546 10.0756 70.6701 10.2385 70.882 10.3208 71.1815 10.3224 71.2871 10.3211 71.427 10.3093 71.6014 10.2867 71.7756 10.2642 71.9203 10.2381 72.0353 10.2084 72.2472 10.1713 72.3927 10.1792 72.4717 10.2321 72.5508 10.285 72.6013 10.3784 72.6234 10.5118L72.8132 11.5161C72.8357 11.6811 72.8096 11.7963 72.7349 11.8619 72.6602 11.9274 72.5725 11.9764 72.4717 12.0087 72.2389 12.0818 71.9788 12.1299 71.6914 12.1532 71.4041 12.1765 71.1203 12.1916 70.8401 12.1983 69.8725 12.182 69.2059 11.9444 68.8402 11.4852 68.4747 11.0259 68.3009 10.4422 68.3191 9.73393L68.3191 5.34921 67.3894 5.3491C67.293 5.34795 67.2155 5.32195 67.157 5.271 67.0985 5.22005 67.0685 5.15138 67.0669 5.065L67.0669 3.96612C67.0688 3.87061 67.0981 3.79639 67.1547 3.74345 67.2112 3.69061 67.2831 3.66377 67.3704 3.66294L68.3191 3.66294 68.3191 1.97446C68.3187 1.88745 68.3432 1.80998 68.3925 1.74204 68.4418 1.67401 68.5185 1.62505 68.6223 1.59496ZM55.9249 0.209985C56.2663 0.217533 56.5546 0.33044 56.7896 0.548811 57.0246 0.767183 57.147 1.04594 57.1569 1.38508 57.1478 1.7085 57.0286 1.98568 56.7991 2.21674 56.5696 2.44769 56.2846 2.56856 55.9438 2.57915 55.594 2.57087 55.3034 2.45482 55.0719 2.23089 54.8406 2.00707 54.7205 1.72506 54.7118 1.38508 54.7197 1.05422 54.8366 0.777771 55.0625 0.55594 55.2884 0.334004 55.5758 0.218686 55.9249 0.209985ZM41.2242 0.000104835 42.7799 0.000104835C42.8574-0.000314505 42.9206 0.0194993 42.9696 0.0593366 43.0186 0.0992788 43.0439 0.16176 43.0455 0.246782L43.0452 9.39269C43.0389 9.74766 43.0895 9.99581 43.1968 10.1373 43.3042 10.2789 43.5063 10.3468 43.8032 10.3413L44.0119 10.3413C44.1225 10.3472 44.1953 10.3875 44.2301 10.4621 44.2649 10.5368 44.2807 10.6101 44.2775 10.6824L44.2776 11.8572C44.2763 11.9863 44.2455 12.074 44.1852 12.1203 44.1248 12.1665 44.0421 12.1929 43.9372 12.1994 43.8166 12.2176 43.6925 12.2287 43.5648 12.2327 43.4372 12.2366 43.3463 12.2381 43.2921 12.2374 42.4404 12.2405 41.8388 12.0302 41.4874 11.6065 41.136 11.1829 40.9661 10.5267 40.9775 9.63811L40.9775 0.265757C40.9783 0.179897 41.0004 0.11427 41.0438 0.0688766 41.0874 0.0233782 41.1474 0.000524175 41.2242 0.000104835ZM3.67835 0.191009C4.33797 0.177591 4.96803 0.294482 5.56852 0.541578 6.16891 0.788674 6.70881 1.24659 7.18822 1.91534 7.2484 1.9927 7.27524 2.07489 7.26895 2.1618 7.26255 2.24882 7.20405 2.33101 7.09345 2.40848L6.0689 3.18656C5.96218 3.24076 5.86258 3.25104 5.77012 3.21749 5.67755 3.18384 5.60647 3.12293 5.55657 3.03476 5.34512 2.72959 5.08513 2.49549 4.77639 2.33258 4.46765 2.16967 4.12694 2.08747 3.75425 2.0859 3.22221 2.09859 2.82059 2.25353 2.54948 2.55085 2.27838 2.84816 2.14241 3.21194 2.14157 3.64207L2.14157 8.82312C2.14314 9.23271 2.28226 9.57584 2.55892 9.8526 2.83568 10.1294 3.24035 10.2733 3.77322 10.2844 4.12777 10.278 4.45738 10.1911 4.76213 10.0235 5.06689 9.85585 5.32541 9.64545 5.5377 9.39238 5.60092 9.3169 5.66885 9.2497 5.7416 9.19078 5.81436 9.13186 5.91081 9.13585 6.03095 9.20263L7.16925 9.90481C7.25626 9.95461 7.31476 10.0211 7.34474 10.1041 7.37483 10.1871 7.36686 10.2725 7.32105 10.3602 6.87875 11.0171 6.34996 11.4892 5.73448 11.7766 5.11909 12.064 4.45266 12.2046 3.73527 12.1983 2.60882 12.1869 1.70881 11.8827 1.03546 11.286 0.3621 10.6893 0.0169833 9.86833 0.000104835 8.82312L0 3.56617C0.0205477 2.53753 0.368076 1.72129 1.04258 1.11744 1.71709 0.513587 2.59571 0.204743 3.67835 0.191009Z" fill="#404040" fill-rule="evenodd" transform="matrix(1.00122 0.0212001 -0.0211694 0.999776 258.398 69.3399)"/><path d="M0 0 73.9499 0.000104835" stroke="#C91429" stroke-width="0.665702" stroke-miterlimit="8" fill="none" fill-rule="evenodd" transform="matrix(1.00145 0 -0 1 256.5 94.5)"/><rect x="0" y="0" width="5.99132" height="6.00002" fill="#C91429" transform="matrix(1.00145 0 -0 1 258 103)"/><rect x="0" y="0" width="5.99132" height="6.00002" fill="#C91429" transform="matrix(1.00145 0 -0 1 258 119)"/><rect x="0" y="0" width="5.99132" height="5.99991" fill="#C91429" transform="matrix(1.00145 0 -0 1 258 135)"/><rect x="0" y="0" width="5.99132" height="7.00004" fill="#C91429" transform="matrix(1.00145 0 -0 1 258 151)"/><path d="M0 0 67.2272 0.000104835" stroke="#C91429" stroke-width="0.665702" stroke-miterlimit="8" fill="none" fill-rule="evenodd" transform="matrix(1.00145 0 -0 1 266.5 109.5)"/><path d="M0 0 67.2272 0.000104835" stroke="#C91429" stroke-width="0.665702" stroke-miterlimit="8" fill="none" fill-rule="evenodd" transform="matrix(1.00145 0 -0 1 265.5 125.5)"/><path d="M0 0 67.2272 0.000104835" stroke="#C91429" stroke-width="0.665702" stroke-miterlimit="8" fill="none" fill-rule="evenodd" transform="matrix(1.00145 0 -0 1 265.5 141.5)"/><path d="M0 0 67.2272 0.000104835" stroke="#C91429" stroke-width="0.665702" stroke-miterlimit="8" fill="none" fill-rule="evenodd" transform="matrix(1.00145 0 -0 1 264.5 157.5)"/><path d="M92.796 0C84.4864 4.39832 5.62303 24.3206 0 25.2885L6.73131 49.8168C11.8422 46.6905 70.012 41.276 75.1229 38.1497 78.7298 26.7089 90.8244 9.17121 92.796 0Z" fill="#7C7C7B" fill-rule="evenodd" transform="matrix(0.443814 0.896119 -0.896907 0.444204 366.228 146.14)"/><path d="M0 1.13585 3.56367 0 9.21542 20.5561 5.3455 22.4122 0 1.13585Z" fill="#FFFFFF" fill-rule="evenodd" transform="matrix(0.443814 0.896119 -0.896907 0.444204 340.264 155.618)"/><path d="M48.7735 7.11263 46.6334 7.16792 32.5674 0C22.0487 0.110576 14.8043 2.07492 9.19721 4.98242 3.2316 9.52253-0.652739 19.4288 0.0963058 21.8387L2.98013 21.3119 7.28179 26.6813C7.72587 29.2831 9.866 29.5595 11.3052 27.374 12.8622 32.5223 16.1366 30.8344 17.4421 25.3804 19.4645 31.3873 23.1562 28.8408 23.6859 22.3103 27.9875 20.759 31.5402 22.0306 35.0339 23.5819 40.4163 26.6 46.4301 27.8033 53.118 24.0665L48.7735 7.11263Z" fill="#D0D0D0" fill-rule="evenodd" transform="matrix(0.443814 0.896119 -0.896907 0.444204 322.507 110.583)"/><path d="M0 39.6158 2.05404 41.245C15.3847 28.0507 28.5875 14.4646 41.2458 0.866145 40.4704 0.313462 39.5836-0.0453695 38.5277 0.008249L0 39.6158Z" fill="#660D0A" fill-rule="evenodd" transform="matrix(0.443814 0.896119 -0.896907 0.444204 336.144 103.819)"/><path d="M0 40.402C1.10933 41.3429 1.96907 42.2838 2.60694 43.1693L41.1563 3.45908C41.0731 2.0201 40.3243 0.830178 39.1872 0L0 40.402Z" fill="#660D0A" fill-rule="evenodd" transform="matrix(0.443814 0.896119 -0.896907 0.444204 336.295 106.039)"/><path d="M1.65273 0 0 4.62132C0.672295 5.12547 1.26055 5.74164 1.8208 6.44185L6.35879 4.45328C5.49041 3.10889 2.80123 0.812233 1.65273 0Z" fill="#FFD06B" fill-rule="evenodd" transform="matrix(0.443814 0.896119 -0.896907 0.444204 299.921 119.861)"/><path d="M1.19335 0 0 3.22092 2.99725 1.80483C2.49771 1.13843 1.99816 0.555331 1.19335 0Z" fill="#7C7C7B" fill-rule="evenodd" transform="matrix(0.443814 0.896119 -0.896907 0.444204 295.23 120.881)"/><path d="M18.5438 0C14.4969 1.72127 10.1173 2.41533 5.98723 3.41478 0.914716 4.19213 0 9.6891 6.79108 10.2443L23.1728 7.49586 18.5438 0Z" fill="#D0D0D0" fill-rule="evenodd" transform="matrix(0.443814 0.896119 -0.896907 0.444204 312.417 120.476)"/><rect x="0" y="0" width="4.99276" height="15" fill="#7C7C7B" transform="matrix(1.00145 0 -0 1 352 35)"/><rect x="0" y="0" width="4.99276" height="20" fill="#7C7C7B" transform="matrix(1.00145 0 -0 1 358 30)"/><rect x="0" y="0" width="4.99276" height="25" fill="#7C7C7B" transform="matrix(1.00145 0 -0 1 365 25)"/><rect x="0" y="0" width="4.99276" height="29" fill="#7C7C7B" transform="matrix(1.00145 0 -0 1 372 21)"/><path d="M0 0 35.1226 0.000104835" stroke="#7C7C7B" stroke-width="0.665702" stroke-miterlimit="8" fill="none" fill-rule="evenodd" transform="matrix(1.00145 0 -0 1 349.5 52.5)"/><path d="M0 0 29.0269 0.000104835" stroke="#7C7C7B" stroke-width="0.665702" stroke-miterlimit="8" fill="none" fill-rule="evenodd" transform="matrix(-4.37114e-08 -1 1.00145 -4.37747e-08 349.5 52.5269)"/><rect x="0" y="0" width="47.9305" height="51" stroke="#7C7C7B" stroke-width="1.3314" stroke-miterlimit="8" fill="none" transform="matrix(1.00145 0 -0 1 381.5 137.5)"/><path d="M0 0 47.7126 0.000104835" stroke="#7C7C7B" stroke-width="0.665702" stroke-miterlimit="8" fill="none" fill-rule="evenodd" transform="matrix(1.00145 0 -0 1 382.5 146.5)"/><path d="M0 0-0.000104835-52.01" stroke="#7C7C7B" stroke-width="0.665702" stroke-miterlimit="8" fill="none" fill-rule="evenodd" transform="matrix(1.00145 8.75495e-08 8.74228e-08 -1 400.5 136.5)"/><path d="M0 0 15.2844 0.000104835" stroke="#7C7C7B" stroke-width="0.665702" stroke-miterlimit="8" fill="none" fill-rule="evenodd" transform="matrix(1.00145 0 -0 1 383.5 151.5)"/><path d="M0 0 10.4394 0.000104835" stroke="#7C7C7B" stroke-width="0.665702" stroke-miterlimit="8" fill="none" fill-rule="evenodd" transform="matrix(1.00145 0 -0 1 383.5 153.5)"/><path d="M0 0 5.35717 0.000104835" stroke="#7C7C7B" stroke-width="0.665702" stroke-miterlimit="8" fill="none" fill-rule="evenodd" transform="matrix(1.00145 0 -0 1 383.5 156.5)"/><path d="M0 0 15.2844 0.000104835" stroke="#7C7C7B" stroke-width="0.665702" stroke-miterlimit="8" fill="none" fill-rule="evenodd" transform="matrix(1.00145 0 -0 1 383.5 159.5)"/><path d="M0 0 10.4394 0.000104835" stroke="#7C7C7B" stroke-width="0.665702" stroke-miterlimit="8" fill="none" fill-rule="evenodd" transform="matrix(1.00145 0 -0 1 383.5 162.5)"/><path d="M0 0 5.35717 0.000104835" stroke="#7C7C7B" stroke-width="0.665702" stroke-miterlimit="8" fill="none" fill-rule="evenodd" transform="matrix(1.00145 0 -0 1 383.5 165.5)"/><path d="M0 0 15.2844 0.000104835" stroke="#7C7C7B" stroke-width="0.665702" stroke-miterlimit="8" fill="none" fill-rule="evenodd" transform="matrix(1.00145 0 -0 1 383.5 167.5)"/><path d="M0 0 10.4394 0.000104835" stroke="#7C7C7B" stroke-width="0.665702" stroke-miterlimit="8" fill="none" fill-rule="evenodd" transform="matrix(1.00145 0 -0 1 383.5 170.5)"/><path d="M0 0 5.35717 0.000104835" stroke="#7C7C7B" stroke-width="0.665702" stroke-miterlimit="8" fill="none" fill-rule="evenodd" transform="matrix(1.00145 0 -0 1 383.5 173.5)"/><path d="M0 0 15.2844 0.000104835" stroke="#7C7C7B" stroke-width="0.665702" stroke-miterlimit="8" fill="none" fill-rule="evenodd" transform="matrix(1.00145 0 -0 1 383.5 176.5)"/><path d="M0 0 10.4394 0.000104835" stroke="#7C7C7B" stroke-width="0.665702" stroke-miterlimit="8" fill="none" fill-rule="evenodd" transform="matrix(1.00145 0 -0 1 383.5 179.5)"/><path d="M0 0 5.35717 0.000104835" stroke="#7C7C7B" stroke-width="0.665702" stroke-miterlimit="8" fill="none" fill-rule="evenodd" transform="matrix(1.00145 0 -0 1 383.5 182.5)"/><path d="M0 0 22.378 0.000104835" stroke="#7C7C7B" stroke-width="0.665702" stroke-miterlimit="8" fill="none" fill-rule="evenodd" transform="matrix(1.00145 0 -0 1 402.5 151.5)"/><path d="M0 0 15.2843 0.000104835" stroke="#7C7C7B" stroke-width="0.665702" stroke-miterlimit="8" fill="none" fill-rule="evenodd" transform="matrix(1.00145 0 -0 1 402.5 154.5)"/><path d="M0 0 7.84344 0.000104835" stroke="#7C7C7B" stroke-width="0.665702" stroke-miterlimit="8" fill="none" fill-rule="evenodd" transform="matrix(1.00145 0 -0 1 402.5 157.5)"/><path d="M0 0 22.378 0.000104835" stroke="#7C7C7B" stroke-width="0.665702" stroke-miterlimit="8" fill="none" fill-rule="evenodd" transform="matrix(1.00145 0 -0 1 402.5 159.5)"/><path d="M0 0 15.2843 0.000104835" stroke="#7C7C7B" stroke-width="0.665702" stroke-miterlimit="8" fill="none" fill-rule="evenodd" transform="matrix(1.00145 0 -0 1 402.5 162.5)"/><path d="M0 0 7.84344 0.000104835" stroke="#7C7C7B" stroke-width="0.665702" stroke-miterlimit="8" fill="none" fill-rule="evenodd" transform="matrix(1.00145 0 -0 1 402.5 165.5)"/><path d="M0 0 22.378 0.000104835" stroke="#7C7C7B" stroke-width="0.665702" stroke-miterlimit="8" fill="none" fill-rule="evenodd" transform="matrix(1.00145 0 -0 1 402.5 168.5)"/><path d="M0 0 15.2843 0.000104835" stroke="#7C7C7B" stroke-width="0.665702" stroke-miterlimit="8" fill="none" fill-rule="evenodd" transform="matrix(1.00145 0 -0 1 402.5 171.5)"/><path d="M0 0 7.84344 0.000104835" stroke="#7C7C7B" stroke-width="0.665702" stroke-miterlimit="8" fill="none" fill-rule="evenodd" transform="matrix(1.00145 0 -0 1 402.5 173.5)"/><path d="M0 0 22.378 0.000104835" stroke="#7C7C7B" stroke-width="0.665702" stroke-miterlimit="8" fill="none" fill-rule="evenodd" transform="matrix(1.00145 0 -0 1 402.5 176.5)"/><path d="M0 0 15.2843 0.000104835" stroke="#7C7C7B" stroke-width="0.665702" stroke-miterlimit="8" fill="none" fill-rule="evenodd" transform="matrix(1.00145 0 -0 1 402.5 179.5)"/><path d="M0 0 7.84344 0.000104835" stroke="#7C7C7B" stroke-width="0.665702" stroke-miterlimit="8" fill="none" fill-rule="evenodd" transform="matrix(1.00145 0 -0 1 402.5 182.5)"/><path d="M0 0 29.9566 0 29.9566 23.9383 18.8948 35.0001 0 35.0001Z" fill="#D0D0D0" fill-rule="evenodd" transform="matrix(-1.00145 -8.75495e-08 8.74228e-08 -1 384 94)"/><path d="M18.8948 35.0001 21.1072 26.1507 29.9566 23.9383Z" fill="#A7A7A7" fill-rule="evenodd" transform="matrix(-1.00145 -8.75495e-08 8.74228e-08 -1 384 94)"/><path d="M0 0-22.0444-0.000104835" stroke="#FFFFFF" stroke-width="0.665702" stroke-miterlimit="8" fill="none" fill-rule="evenodd" transform="matrix(1.00145 8.75495e-08 8.74228e-08 -1 380.576 71.5001)"/><path d="M0 0-22.0444-0.000104835" stroke="#FFFFFF" stroke-width="0.665702" stroke-miterlimit="8" fill="none" fill-rule="evenodd" transform="matrix(1.00145 8.75495e-08 8.74228e-08 -1 380.576 75.5)"/><path d="M0 0-22.0444-0.000104835" stroke="#FFFFFF" stroke-width="0.665702" stroke-miterlimit="8" fill="none" fill-rule="evenodd" transform="matrix(1.00145 8.75495e-08 8.74228e-08 -1 380.576 80.5)"/><path d="M0 0-22.0444-0.000104835" stroke="#FFFFFF" stroke-width="0.665702" stroke-miterlimit="8" fill="none" fill-rule="evenodd" transform="matrix(1.00145 8.75495e-08 8.74228e-08 -1 380.576 84.5)"/><path d="M0 0-22.0444-0.000104835" stroke="#FFFFFF" stroke-width="0.665702" stroke-miterlimit="8" fill="none" fill-rule="evenodd" transform="matrix(1.00145 8.75495e-08 8.74228e-08 -1 380.576 89.5)"/><path d="M0 0-29.9566 0-29.9566-24.9382-18.8948-36 0-36Z" fill="#D0D0D0" fill-rule="evenodd" transform="matrix(-1.00145 -0 -0 1 415 126)"/><path d="M-18.8948-36-21.1072-27.1506-29.9566-24.9382Z" fill="#A7A7A7" fill-rule="evenodd" transform="matrix(-1.00145 -0 -0 1 415 126)"/><path d="M0 0 22.0443 0.000104835" stroke="#7C7C7B" stroke-width="0.665702" stroke-miterlimit="8" fill="none" fill-rule="evenodd" transform="matrix(1.00145 0 -0 1 404.5 98.5)"/><path d="M0 0 22.0443 0.000104835" stroke="#7C7C7B" stroke-width="0.665702" stroke-miterlimit="8" fill="none" fill-rule="evenodd" transform="matrix(1.00145 0 -0 1 404.5 102.5)"/><path d="M0 0 22.0443 0.000104835" stroke="#7C7C7B" stroke-width="0.665702" stroke-miterlimit="8" fill="none" fill-rule="evenodd" transform="matrix(1.00145 0 -0 1 404.5 106.5)"/><path d="M0 0 22.0443 0.000104835" stroke="#7C7C7B" stroke-width="0.665702" stroke-miterlimit="8" fill="none" fill-rule="evenodd" transform="matrix(1.00145 0 -0 1 430.5 113.5)"/><path d="M0 0 22.0443 0.000104835" stroke="#7C7C7B" stroke-width="0.665702" stroke-miterlimit="8" fill="none" fill-rule="evenodd" transform="matrix(1.00145 0 -0 1 430.5 117.5)"/><path d="M0 0 22.0443 0.000104835" stroke="#7C7C7B" stroke-width="0.665702" stroke-miterlimit="8" fill="none" fill-rule="evenodd" transform="matrix(1.00145 0 -0 1 430.5 121.5)"/><path d="M0 29.7763 1.69825 31.0008C12.7198 21.0837 23.6357 10.872 34.1014 0.651018 33.4603 0.235606 32.7271-0.0341009 31.8541 0.00620017L0 29.7763Z" fill="#7C7C7B" fill-rule="evenodd" transform="matrix(0.693756 -0.72021 0.72025 0.693795 391.632 42.8593)"/><path d="M0 30.3672C0.917181 31.0743 1.628 31.7815 2.15538 32.4471L34.0274 2.59993C33.9586 1.51836 33.3395 0.623983 32.3994 0L0 30.3672Z" fill="#7C7C7B" fill-rule="evenodd" transform="matrix(0.693756 -0.72021 0.72025 0.693795 393.353 42.1189)"/><path d="M1.36645 0 0 3.47348C0.555844 3.8524 1.04221 4.31553 1.50541 4.84182L5.25736 3.34717C4.53939 2.3367 2.31602 0.61049 1.36645 0Z" fill="#FFD06B" fill-rule="evenodd" transform="matrix(0.693756 -0.72021 0.72025 0.693795 412.6 63.5877)"/><path d="M0.986624 0 0 2.42096 2.47803 1.35657C2.06503 0.855685 1.65202 0.417407 0.986624 0Z" fill="#7C7C7B" fill-rule="evenodd" transform="matrix(0.693756 -0.72021 0.72025 0.693795 414.518 66.5794)"/><rect x="0" y="0" width="16.9754" height="46.9999" stroke="#7C7C7B" stroke-width="0.998553" stroke-miterlimit="8" fill="none" transform="matrix(1.00145 0 -0 1 139.5 142.5)"/><rect x="0" y="0" width="16.9754" height="35" stroke="#7C7C7B" stroke-width="0.998553" stroke-miterlimit="8" fill="none" transform="matrix(1.00145 0 -0 1 160.5 154.5)"/><rect x="0" y="0" width="16.9754" height="21.9999" stroke="#7C7C7B" stroke-width="0.998553" stroke-miterlimit="8" fill="none" transform="matrix(1.00145 0 -0 1 181.5 167.5)"/><path d="M0 0-29.9566 0-29.9566-20.9383-18.8948-32 0-32Z" fill="#BBBBBB" fill-rule="evenodd" transform="matrix(-1.00145 -0 -0 1 113 125)"/><path d="M-18.8948-32-21.1072-23.1506-29.9566-20.9383Z" fill="#969696" fill-rule="evenodd" transform="matrix(-1.00145 -0 -0 1 113 125)"/><path d="M0 0 22.0443 0.000104835" stroke="#7C7C7B" stroke-width="0.665702" stroke-miterlimit="8" fill="none" fill-rule="evenodd" transform="matrix(1.00145 0 -0 1 102.5 100.5)"/><path d="M0 0 22.0443 0.000104835" stroke="#7C7C7B" stroke-width="0.665702" stroke-miterlimit="8" fill="none" fill-rule="evenodd" transform="matrix(1.00145 0 -0 1 102.5 104.5)"/><path d="M0 0 22.0443 0.000104835" stroke="#7C7C7B" stroke-width="0.665702" stroke-miterlimit="8" fill="none" fill-rule="evenodd" transform="matrix(1.00145 0 -0 1 102.5 108.5)"/><path d="M0 0 22.0443 0.000104835" stroke="#7C7C7B" stroke-width="0.665702" stroke-miterlimit="8" fill="none" fill-rule="evenodd" transform="matrix(1.00145 0 -0 1 128.5 113.5)"/><path d="M0 0 22.0443 0.000104835" stroke="#7C7C7B" stroke-width="0.665702" stroke-miterlimit="8" fill="none" fill-rule="evenodd" transform="matrix(1.00145 0 -0 1 128.5 117.5)"/><path d="M0 0 22.0443 0.000104835" stroke="#7C7C7B" stroke-width="0.665702" stroke-miterlimit="8" fill="none" fill-rule="evenodd" transform="matrix(1.00145 0 -0 1 128.5 121.5)"/><path d="M0 29.7762 1.40351 31.0007C10.5123 21.0836 19.5336 10.872 28.183 0.651015 27.6532 0.235606 27.0472-0.0341008 26.3257 0.00620015L0 29.7762Z" fill="#7C7C7B" fill-rule="evenodd" transform="matrix(-0.721254 -0.692752 0.692713 -0.721213 141.332 87.4372)"/><path d="M0 30.3671C0.757998 31.0742 1.34545 31.7814 1.7813 32.447L28.1217 2.59992C28.0649 1.51835 27.5532 0.623981 26.7763 0L0 30.3671Z" fill="#7C7C7B" fill-rule="evenodd" transform="matrix(-0.721254 -0.692752 0.692713 -0.721213 140.722 86.0755)"/><path d="M1.12928 0 0 3.47348C0.459369 3.8524 0.861318 4.31553 1.24413 4.84182L4.34487 3.34717C3.75152 2.3367 1.91404 0.61049 1.12928 0Z" fill="#FFD06B" fill-rule="evenodd" transform="matrix(-0.721254 -0.692752 0.692713 -0.721213 163.54 67.2486)"/><path d="M0.815413 0 0 2.42096 2.04801 1.35657C1.70668 0.855685 1.36534 0.417407 0.815413 0Z" fill="#7C7C7B" fill-rule="evenodd" transform="matrix(-0.721254 -0.692752 0.692713 -0.721213 166.652 65.3384)"/><path d="M31.0603 17.0833C31.0603 26.5181 24.1072 34.1665 15.5302 34.1665 6.95311 34.1665 0 26.5181 0 17.0833 0 7.64845 6.95311 0 15.5302 0 24.1072 0 31.0603 7.64845 31.0603 17.0833Z" fill="#D0D0D0" fill-rule="evenodd" fill-opacity="0.4" transform="matrix(1.00034 -0.0469564 0.0468887 0.9989 88.6426 145.494)"/><path d="M4.88047 20.9009 0 15.5322 14.1201 0 19.0007 5.36855Z" fill="#7C7C7B" fill-rule="evenodd" transform="matrix(1.00034 -0.0469564 0.0468887 0.9989 72.5613 178.856)"/><path d="M4.88052 6.83362 0 1.46503 1.33184 0 6.21236 5.36859Z" fill="#BBBBBB" fill-rule="evenodd" transform="matrix(1.00034 -0.0469564 0.0468887 0.9989 86.6917 176.661)"/><path d="M4.88052 6.83362 0 1.46503 1.33184 0 6.21236 5.36859Z" fill="#BBBBBB" fill-rule="evenodd" transform="matrix(1.00034 -0.0469564 0.0468887 0.9989 71.8849 194.501)"/><path d="M29.5646 5.57973C26.2936 1.98144 21.9446 0 17.3186 0 12.6925 0 8.34362 1.98144 5.07246 5.57973 1.80143 9.17788 0 13.9618 0 19.0505 0 23.471 1.36016 27.6613 3.86159 31.0443L1.03079 34.1583 3.58436 36.9672 6.41515 33.8533C9.49071 36.6048 13.2999 38.1011 17.3186 38.1011 21.9446 38.1011 26.2935 36.1195 29.5646 32.5214 32.8357 28.9231 34.6371 24.1391 34.6371 19.0505 34.6371 13.9618 32.8357 9.17788 29.5646 5.57973ZM27.0354 29.7391C24.4399 32.594 20.9891 34.1663 17.3186 34.1664 13.648 34.1664 10.1972 32.5941 7.6017 29.7391 5.00635 26.884 3.57698 23.0881 3.57685 19.0505 3.57685 15.0129 5.00622 11.2169 7.6017 8.36191 10.1972 5.50701 13.648 3.9347 17.3186 3.93456 20.9891 3.93456 24.4399 5.50687 27.0354 8.36191 29.6307 11.2171 31.0601 15.0129 31.0602 19.0505 31.0602 23.0881 29.6309 26.884 27.0354 29.7391Z" stroke="#7C7C7B" stroke-width="0.0899487" stroke-miterlimit="8" fill="#7C7C7B" fill-rule="evenodd" transform="matrix(1.00034 -0.0469564 0.0468887 0.9989 86.7612 143.613)"/><path d="M32.8384 40.6561 32.9522 0 0 0.0736968 0.0341592 41 32.8384 40.6561Z" fill="#7C7C7B" fill-rule="evenodd" transform="matrix(1.00145 0 -0 1 236 189)"/><path d="M0 4.83333 0.102214 0 25.8602 0.214286 25.9624 5 0 4.83333Z" fill="#D0D0D0" fill-rule="evenodd" transform="matrix(1.00145 0 -0 1 239 184)"/><path d="M0 2.00004C-5.08516e-16 0.895449 0.894135 0 1.99711 0 3.10008 -5.09264e-16 3.99421 0.895449 3.99421 2.00004 3.99421 3.10463 3.10008 4.00008 1.99711 4.00008 0.894135 4.00008 -7.62775e-16 3.10463 0 2.00004Z" fill="#FFFFFF" fill-rule="evenodd" transform="matrix(1.00145 0 -0 1 263 192)"/><path d="M0 1.99999C-5.08516e-16 0.895425 0.894135 0 1.99711 0 3.10008 -5.09251e-16 3.99421 0.895425 3.99421 1.99999 3.99421 3.10455 3.10008 3.99998 1.99711 3.99998 0.894135 3.99998 -7.62775e-16 3.10455 0 1.99999Z" fill="#FFFFFF" fill-rule="evenodd" transform="matrix(1.00145 0 -0 1 263 200)"/><path d="M32.639 51 32.4805 47.0279C33.2732 45.5708 33.4205 43.261 33.3412 40.6705 34.9493 34.054 31.3706 29.4559 29.5246 25.7429L26.5688 10.1244 23.9866 3.95048C23.1372 1.93206 16.3648 2.15873 17.0103 7.90095 17.9956 14.334 20.1021 22.2025 17.7238 27.7613 14.3489 28.8946 13.8053 27.0381 13.6241 24.7175L13.7261 0 1.39299 20.0438C0 22.127 0.498306 22.8933 1.29106 24.6743L11.5063 43.0235 13.1145 47.5244 13.0579 50.8813 32.639 51Z" fill="#D0D0D0" fill-rule="evenodd" transform="matrix(1.00145 0 -0 1 229 133)"/><path d="M0 0.660767C-1.36707e-16 0.295836 0.295836 0 0.660767 0L3.63437 0C3.9993 -1.36707e-16 4.29514 0.295836 4.29514 0.660767L4.29514 3.30377C4.29514 3.6687 3.9993 3.96454 3.63437 3.96454L0.660767 3.96454C0.295836 3.96454 0 3.6687 0 3.30377Z" fill="#F2F2F2" fill-rule="evenodd" transform="matrix(0.962812 -0.27469 0.274353 0.961629 247.817 138.57)"/></g></svg>